<svg width="132" height="60" viewBox="0 0 132 60" fill="none" xmlns="http://www.w3.org/2000/svg">
<path d="M1 10C1 4.7533 5.25329 0.5 10.5 0.5H121.5C126.747 0.5 131 4.7533 131 10V50C131 55.2467 126.747 59.5 121.5 59.5H10.5C5.2533 59.5 1 55.2467 1 50V10Z" fill="white"/>
<path d="M1 10C1 4.7533 5.25329 0.5 10.5 0.5H121.5C126.747 0.5 131 4.7533 131 10V50C131 55.2467 126.747 59.5 121.5 59.5H10.5C5.2533 59.5 1 55.2467 1 50V10Z" stroke="#D5D7DA"/>
<path d="M36.5 40C42.0228 40 46.5 35.5228 46.5 30C46.5 24.4772 42.0228 20 36.5 20C30.9772 20 26.5 24.4772 26.5 30C26.5 35.5228 30.9772 40 36.5 40Z" stroke="#414651" stroke-width="2" stroke-linecap="round" stroke-linejoin="round"/>
<path d="M34 26.9653C34 26.488 34 26.2494 34.0997 26.1162C34.1867 26.0001 34.3197 25.9274 34.4644 25.9171C34.6304 25.9052 34.8311 26.0343 35.2326 26.2924L39.9532 29.3271C40.3016 29.551 40.4758 29.663 40.5359 29.8054C40.5885 29.9298 40.5885 30.0702 40.5359 30.1946C40.4758 30.337 40.3016 30.449 39.9532 30.6729L35.2326 33.7076C34.8311 33.9657 34.6304 34.0948 34.4644 34.0829C34.3197 34.0726 34.1867 33.9999 34.0997 33.8838C34 33.7506 34 33.512 34 33.0347V26.9653Z" stroke="#414651" stroke-width="2" stroke-linecap="round" stroke-linejoin="round"/>
<path d="M62.2273 37H57.7912V23.9091H62.3168C63.6165 23.9091 64.733 24.1712 65.6662 24.6953C66.6037 25.2152 67.3239 25.9631 67.8267 26.9389C68.3295 27.9148 68.581 29.0824 68.581 30.4418C68.581 31.8054 68.3274 32.9773 67.8203 33.9574C67.3175 34.9375 66.5909 35.6896 65.6406 36.2138C64.6946 36.7379 63.5568 37 62.2273 37ZM60.1626 34.9482H62.1122C63.0241 34.9482 63.7848 34.782 64.3942 34.4496C65.0036 34.1129 65.4616 33.6122 65.7685 32.9474C66.0753 32.2784 66.2287 31.4432 66.2287 30.4418C66.2287 29.4403 66.0753 28.6094 65.7685 27.9489C65.4616 27.2841 65.0078 26.7876 64.407 26.4595C63.8104 26.1271 63.0689 25.9609 62.1825 25.9609H60.1626V34.9482ZM75.0785 37.1918C74.0941 37.1918 73.244 36.9872 72.5281 36.5781C71.8164 36.1648 71.2688 35.581 70.8853 34.8267C70.5018 34.0682 70.31 33.1754 70.31 32.1484C70.31 31.1385 70.5018 30.2521 70.8853 29.4893C71.2731 28.7223 71.8143 28.1257 72.5089 27.6996C73.2035 27.2692 74.0195 27.054 74.957 27.054C75.5621 27.054 76.1332 27.152 76.6701 27.348C77.2113 27.5398 77.6886 27.8381 78.1019 28.2429C78.5195 28.6477 78.8477 29.1634 79.0863 29.7898C79.3249 30.4119 79.4442 31.1534 79.4442 32.0142V32.7237H71.3967V31.1641H77.2262C77.2219 30.7209 77.1261 30.3267 76.9386 29.9815C76.7511 29.6321 76.489 29.3572 76.1523 29.157C75.82 28.9567 75.4322 28.8565 74.989 28.8565C74.516 28.8565 74.1005 28.9716 73.7425 29.2017C73.3846 29.4276 73.1055 29.7259 72.9052 30.0966C72.7092 30.4631 72.609 30.8658 72.6048 31.3047V32.6662C72.6048 33.2372 72.7092 33.7273 72.918 34.1364C73.1268 34.5412 73.4187 34.8523 73.7937 35.0696C74.1687 35.2827 74.6076 35.3892 75.1104 35.3892C75.4471 35.3892 75.7518 35.3423 76.0245 35.2486C76.2972 35.1506 76.5337 35.0078 76.734 34.8203C76.9343 34.6328 77.0856 34.4006 77.1879 34.1236L79.3484 34.3665C79.212 34.9375 78.9521 35.4361 78.5685 35.8622C78.1893 36.2841 77.7035 36.6122 77.1112 36.8466C76.5188 37.0767 75.8413 37.1918 75.0785 37.1918ZM81.4018 37V27.1818H83.6135V28.8501H83.7285C83.9331 28.2876 84.2718 27.8487 84.7449 27.5334C85.2179 27.2138 85.7825 27.054 86.4387 27.054C87.1035 27.054 87.6639 27.2159 88.1199 27.5398C88.5801 27.8594 88.9039 28.2962 89.0914 28.8501H89.1937C89.411 28.3047 89.7775 27.87 90.2931 27.5462C90.813 27.218 91.4288 27.054 92.1404 27.054C93.0439 27.054 93.7811 27.3395 94.3521 27.9105C94.9231 28.4815 95.2086 29.3146 95.2086 30.4098V37H92.8883V30.7678C92.8883 30.1584 92.7264 29.7131 92.4025 29.4318C92.0787 29.1463 91.6824 29.0036 91.2136 29.0036C90.6554 29.0036 90.2186 29.1783 89.9032 29.5277C89.5922 29.8729 89.4366 30.3224 89.4366 30.8764V37H87.1674V30.6719C87.1674 30.1648 87.014 29.7599 86.7072 29.4574C86.4047 29.1548 86.0083 29.0036 85.5183 29.0036C85.1859 29.0036 84.8833 29.0888 84.6106 29.2592C84.3379 29.4254 84.1206 29.6619 83.9586 29.9688C83.7967 30.2713 83.7157 30.625 83.7157 31.0298V37H81.4018ZM101.839 37.1918C100.88 37.1918 100.049 36.9808 99.3459 36.5589C98.6428 36.1371 98.0973 35.5469 97.7095 34.7884C97.326 34.0298 97.1342 33.1435 97.1342 32.1293C97.1342 31.1151 97.326 30.2266 97.7095 29.4638C98.0973 28.701 98.6428 28.1087 99.3459 27.6868C100.049 27.2649 100.88 27.054 101.839 27.054C102.798 27.054 103.629 27.2649 104.332 27.6868C105.035 28.1087 105.578 28.701 105.962 29.4638C106.349 30.2266 106.543 31.1151 106.543 32.1293C106.543 33.1435 106.349 34.0298 105.962 34.7884C105.578 35.5469 105.035 36.1371 104.332 36.5589C103.629 36.9808 102.798 37.1918 101.839 37.1918ZM101.852 35.3381C102.371 35.3381 102.806 35.1953 103.156 34.9098C103.505 34.62 103.765 34.2322 103.935 33.7464C104.11 33.2607 104.197 32.7195 104.197 32.1229C104.197 31.522 104.11 30.9787 103.935 30.4929C103.765 30.0028 103.505 29.6129 103.156 29.3232C102.806 29.0334 102.371 28.8885 101.852 28.8885C101.319 28.8885 100.876 29.0334 100.522 29.3232C100.173 29.6129 99.9105 30.0028 99.7358 30.4929C99.5653 30.9787 99.4801 31.522 99.4801 32.1229C99.4801 32.7195 99.5653 33.2607 99.7358 33.7464C99.9105 34.2322 100.173 34.62 100.522 34.9098C100.876 35.1953 101.319 35.3381 101.852 35.3381Z" fill="#414651"/>
</svg>
