<svg width="416" height="308" viewBox="0 0 416 308" fill="none" xmlns="http://www.w3.org/2000/svg">
<g clip-path="url(#clip0_0_2197)">
<path d="M9.53834 1.60996C9.70914 1.19932 10.2909 1.19932 10.4617 1.60996L12.5278 6.57744C12.5998 6.75056 12.7626 6.86885 12.9495 6.88383L18.3123 7.31376C18.7556 7.3493 18.9354 7.90256 18.5976 8.19189L14.5117 11.6919C14.3693 11.8139 14.3071 12.0053 14.3506 12.1876L15.5989 17.4208C15.7021 17.8534 15.2315 18.1954 14.8519 17.9635L10.2606 15.1592C10.1006 15.0615 9.89938 15.0615 9.73937 15.1592L5.14806 17.9635C4.76851 18.1954 4.29788 17.8534 4.40108 17.4208L5.64939 12.1876C5.69289 12.0053 5.6307 11.8139 5.48831 11.6919L1.40241 8.19189C1.06464 7.90256 1.24441 7.3493 1.68773 7.31376L7.05054 6.88383C7.23744 6.86885 7.40024 6.75056 7.47225 6.57744L9.53834 1.60996Z" fill="#F5F5F5"/>
<g clip-path="url(#clip1_0_2197)">
<path d="M9.53834 1.60996C9.70914 1.19932 10.2909 1.19932 10.4617 1.60996L12.5278 6.57744C12.5998 6.75056 12.7626 6.86885 12.9495 6.88383L18.3123 7.31376C18.7556 7.3493 18.9354 7.90256 18.5976 8.19189L14.5117 11.6919C14.3693 11.8139 14.3071 12.0053 14.3506 12.1876L15.5989 17.4208C15.7021 17.8534 15.2315 18.1954 14.8519 17.9635L10.2606 15.1592C10.1006 15.0615 9.89938 15.0615 9.73937 15.1592L5.14806 17.9635C4.76851 18.1954 4.29788 17.8534 4.40108 17.4208L5.64939 12.1876C5.69289 12.0053 5.6307 11.8139 5.48831 11.6919L1.40241 8.19189C1.06464 7.90256 1.24441 7.3493 1.68773 7.31376L7.05054 6.88383C7.23744 6.86885 7.40024 6.75056 7.47225 6.57744L9.53834 1.60996Z" fill="#FEC84B"/>
</g>
</g>
<g clip-path="url(#clip2_0_2197)">
<path d="M33.5383 1.60996C33.7091 1.19932 34.2909 1.19932 34.4617 1.60996L36.5278 6.57744C36.5998 6.75056 36.7626 6.86885 36.9495 6.88383L42.3123 7.31376C42.7556 7.3493 42.9354 7.90256 42.5976 8.19189L38.5117 11.6919C38.3693 11.8139 38.3071 12.0053 38.3506 12.1876L39.5989 17.4208C39.7021 17.8534 39.2315 18.1954 38.8519 17.9635L34.2606 15.1592C34.1006 15.0615 33.8994 15.0615 33.7394 15.1592L29.1481 17.9635C28.7685 18.1954 28.2979 17.8534 28.4011 17.4208L29.6494 12.1876C29.6929 12.0053 29.6307 11.8139 29.4883 11.6919L25.4024 8.19189C25.0646 7.90256 25.2444 7.3493 25.6877 7.31376L31.0505 6.88383C31.2374 6.86885 31.4002 6.75056 31.4722 6.57744L33.5383 1.60996Z" fill="#F5F5F5"/>
<g clip-path="url(#clip3_0_2197)">
<path d="M33.5383 1.60996C33.7091 1.19932 34.2909 1.19932 34.4617 1.60996L36.5278 6.57744C36.5998 6.75056 36.7626 6.86885 36.9495 6.88383L42.3123 7.31376C42.7556 7.3493 42.9354 7.90256 42.5976 8.19189L38.5117 11.6919C38.3693 11.8139 38.3071 12.0053 38.3506 12.1876L39.5989 17.4208C39.7021 17.8534 39.2315 18.1954 38.8519 17.9635L34.2606 15.1592C34.1006 15.0615 33.8994 15.0615 33.7394 15.1592L29.1481 17.9635C28.7685 18.1954 28.2979 17.8534 28.4011 17.4208L29.6494 12.1876C29.6929 12.0053 29.6307 11.8139 29.4883 11.6919L25.4024 8.19189C25.0646 7.90256 25.2444 7.3493 25.6877 7.31376L31.0505 6.88383C31.2374 6.86885 31.4002 6.75056 31.4722 6.57744L33.5383 1.60996Z" fill="#FEC84B"/>
</g>
</g>
<g clip-path="url(#clip4_0_2197)">
<path d="M57.5383 1.60996C57.7091 1.19932 58.2909 1.19932 58.4617 1.60996L60.5278 6.57744C60.5998 6.75056 60.7626 6.86885 60.9495 6.88383L66.3123 7.31376C66.7556 7.3493 66.9354 7.90256 66.5976 8.19189L62.5117 11.6919C62.3693 11.8139 62.3071 12.0053 62.3506 12.1876L63.5989 17.4208C63.7021 17.8534 63.2315 18.1954 62.8519 17.9635L58.2606 15.1592C58.1006 15.0615 57.8994 15.0615 57.7394 15.1592L53.1481 17.9635C52.7685 18.1954 52.2979 17.8534 52.4011 17.4208L53.6494 12.1876C53.6929 12.0053 53.6307 11.8139 53.4883 11.6919L49.4024 8.19189C49.0646 7.90256 49.2444 7.3493 49.6877 7.31376L55.0505 6.88383C55.2374 6.86885 55.4002 6.75056 55.4722 6.57744L57.5383 1.60996Z" fill="#F5F5F5"/>
<g clip-path="url(#clip5_0_2197)">
<path d="M57.5383 1.60996C57.7091 1.19932 58.2909 1.19932 58.4617 1.60996L60.5278 6.57744C60.5998 6.75056 60.7626 6.86885 60.9495 6.88383L66.3123 7.31376C66.7556 7.3493 66.9354 7.90256 66.5976 8.19189L62.5117 11.6919C62.3693 11.8139 62.3071 12.0053 62.3506 12.1876L63.5989 17.4208C63.7021 17.8534 63.2315 18.1954 62.8519 17.9635L58.2606 15.1592C58.1006 15.0615 57.8994 15.0615 57.7394 15.1592L53.1481 17.9635C52.7685 18.1954 52.2979 17.8534 52.4011 17.4208L53.6494 12.1876C53.6929 12.0053 53.6307 11.8139 53.4883 11.6919L49.4024 8.19189C49.0646 7.90256 49.2444 7.3493 49.6877 7.31376L55.0505 6.88383C55.2374 6.86885 55.4002 6.75056 55.4722 6.57744L57.5383 1.60996Z" fill="#FEC84B"/>
</g>
</g>
<g clip-path="url(#clip6_0_2197)">
<path d="M81.5383 1.60996C81.7091 1.19932 82.2909 1.19932 82.4617 1.60996L84.5278 6.57744C84.5998 6.75056 84.7626 6.86885 84.9495 6.88383L90.3123 7.31376C90.7556 7.3493 90.9354 7.90256 90.5976 8.19189L86.5117 11.6919C86.3693 11.8139 86.3071 12.0053 86.3506 12.1876L87.5989 17.4208C87.7021 17.8534 87.2315 18.1954 86.8519 17.9635L82.2606 15.1592C82.1006 15.0615 81.8994 15.0615 81.7394 15.1592L77.1481 17.9635C76.7685 18.1954 76.2979 17.8534 76.4011 17.4208L77.6494 12.1876C77.6929 12.0053 77.6307 11.8139 77.4883 11.6919L73.4024 8.19189C73.0646 7.90256 73.2444 7.3493 73.6877 7.31376L79.0505 6.88383C79.2374 6.86885 79.4002 6.75056 79.4722 6.57744L81.5383 1.60996Z" fill="#F5F5F5"/>
<g clip-path="url(#clip7_0_2197)">
<path d="M81.5383 1.60996C81.7091 1.19932 82.2909 1.19932 82.4617 1.60996L84.5278 6.57744C84.5998 6.75056 84.7626 6.86885 84.9495 6.88383L90.3123 7.31376C90.7556 7.3493 90.9354 7.90256 90.5976 8.19189L86.5117 11.6919C86.3693 11.8139 86.3071 12.0053 86.3506 12.1876L87.5989 17.4208C87.7021 17.8534 87.2315 18.1954 86.8519 17.9635L82.2606 15.1592C82.1006 15.0615 81.8994 15.0615 81.7394 15.1592L77.1481 17.9635C76.7685 18.1954 76.2979 17.8534 76.4011 17.4208L77.6494 12.1876C77.6929 12.0053 77.6307 11.8139 77.4883 11.6919L73.4024 8.19189C73.0646 7.90256 73.2444 7.3493 73.6877 7.31376L79.0505 6.88383C79.2374 6.86885 79.4002 6.75056 79.4722 6.57744L81.5383 1.60996Z" fill="#FEC84B"/>
</g>
</g>
<g clip-path="url(#clip8_0_2197)">
<path d="M105.538 1.60996C105.709 1.19932 106.291 1.19932 106.462 1.60996L108.528 6.57744C108.6 6.75056 108.763 6.86885 108.949 6.88383L114.312 7.31376C114.756 7.3493 114.935 7.90256 114.598 8.19189L110.512 11.6919C110.369 11.8139 110.307 12.0053 110.351 12.1876L111.599 17.4208C111.702 17.8534 111.231 18.1954 110.852 17.9635L106.261 15.1592C106.101 15.0615 105.899 15.0615 105.739 15.1592L101.148 17.9635C100.769 18.1954 100.298 17.8534 100.401 17.4208L101.649 12.1876C101.693 12.0053 101.631 11.8139 101.488 11.6919L97.4024 8.19189C97.0646 7.90256 97.2444 7.3493 97.6877 7.31376L103.051 6.88383C103.237 6.86885 103.4 6.75056 103.472 6.57744L105.538 1.60996Z" fill="#F5F5F5"/>
<g clip-path="url(#clip9_0_2197)">
<path d="M105.538 1.60996C105.709 1.19932 106.291 1.19932 106.462 1.60996L108.528 6.57744C108.6 6.75056 108.763 6.86885 108.949 6.88383L114.312 7.31376C114.756 7.3493 114.935 7.90256 114.598 8.19189L110.512 11.6919C110.369 11.8139 110.307 12.0053 110.351 12.1876L111.599 17.4208C111.702 17.8534 111.231 18.1954 110.852 17.9635L106.261 15.1592C106.101 15.0615 105.899 15.0615 105.739 15.1592L101.148 17.9635C100.769 18.1954 100.298 17.8534 100.401 17.4208L101.649 12.1876C101.693 12.0053 101.631 11.8139 101.488 11.6919L97.4024 8.19189C97.0646 7.90256 97.2444 7.3493 97.6877 7.31376L103.051 6.88383C103.237 6.86885 103.4 6.75056 103.472 6.57744L105.538 1.60996Z" fill="#FEC84B"/>
</g>
</g>
<path d="M2.87642 79V52.8182H6.8267V75.5994H18.6903V79H2.87642ZM31.1612 79.3963C29.3203 79.3963 27.7138 78.9744 26.3416 78.1307C24.9695 77.2869 23.9041 76.1065 23.1456 74.5895C22.3871 73.0724 22.0078 71.2997 22.0078 69.2713C22.0078 67.2344 22.3871 65.4531 23.1456 63.9276C23.9041 62.402 24.9695 61.2173 26.3416 60.3736C27.7138 59.5298 29.3203 59.108 31.1612 59.108C33.0021 59.108 34.6087 59.5298 35.9808 60.3736C37.353 61.2173 38.4183 62.402 39.1768 63.9276C39.9354 65.4531 40.3146 67.2344 40.3146 69.2713C40.3146 71.2997 39.9354 73.0724 39.1768 74.5895C38.4183 76.1065 37.353 77.2869 35.9808 78.1307C34.6087 78.9744 33.0021 79.3963 31.1612 79.3963ZM31.174 76.1875C32.3672 76.1875 33.3558 75.8722 34.1399 75.2415C34.924 74.6108 35.5036 73.7713 35.8786 72.723C36.2621 71.6747 36.4538 70.5199 36.4538 69.2585C36.4538 68.0057 36.2621 66.8551 35.8786 65.8068C35.5036 64.75 34.924 63.902 34.1399 63.2628C33.3558 62.6236 32.3672 62.304 31.174 62.304C29.9723 62.304 28.9751 62.6236 28.1825 63.2628C27.3984 63.902 26.8146 64.75 26.4311 65.8068C26.0561 66.8551 25.8686 68.0057 25.8686 69.2585C25.8686 70.5199 26.0561 71.6747 26.4311 72.723C26.8146 73.7713 27.3984 74.6108 28.1825 75.2415C28.9751 75.8722 29.9723 76.1875 31.174 76.1875ZM60.7116 59.3636L53.5909 79H49.5L42.3665 59.3636H46.4702L51.4432 74.4744H51.6477L56.608 59.3636H60.7116ZM72.0991 79.3963C70.1644 79.3963 68.4982 78.983 67.1005 78.1562C65.7113 77.321 64.6374 76.1491 63.8789 74.6406C63.1289 73.1236 62.7539 71.3466 62.7539 69.3097C62.7539 67.2983 63.1289 65.5256 63.8789 63.9915C64.6374 62.4574 65.6942 61.2599 67.0494 60.3991C68.413 59.5384 70.0067 59.108 71.8306 59.108C72.9386 59.108 74.0124 59.2912 75.0522 59.6577C76.092 60.0241 77.0252 60.5994 77.8519 61.3835C78.6786 62.1676 79.3306 63.1861 79.8079 64.4389C80.2852 65.6832 80.5238 67.196 80.5238 68.9773V70.3324H64.9144V67.4688H76.7781C76.7781 66.4631 76.5735 65.5724 76.1644 64.7969C75.7553 64.0128 75.18 63.3949 74.4386 62.9432C73.7056 62.4915 72.8448 62.2656 71.8562 62.2656C70.7823 62.2656 69.8448 62.5298 69.0437 63.0582C68.2511 63.5781 67.6374 64.2599 67.2028 65.1037C66.7766 65.9389 66.5636 66.8466 66.5636 67.8267V70.0639C66.5636 71.3764 66.7937 72.4929 67.2539 73.4134C67.7227 74.3338 68.3746 75.0369 69.2099 75.5227C70.0451 76 71.021 76.2386 72.1374 76.2386C72.8619 76.2386 73.5224 76.1364 74.119 75.9318C74.7156 75.7187 75.2312 75.4034 75.6658 74.9858C76.1005 74.5682 76.4329 74.0526 76.663 73.4389L80.2809 74.0909C79.9911 75.1562 79.4712 76.0895 78.7212 76.8906C77.9798 77.6832 77.0465 78.3011 75.9215 78.7443C74.805 79.179 73.5309 79.3963 72.0991 79.3963ZM103.458 59.3636V62.4318H92.7326V59.3636H103.458ZM95.609 54.6591H99.4315V73.2344C99.4315 73.9759 99.5423 74.5341 99.7638 74.9091C99.9854 75.2756 100.271 75.527 100.62 75.6634C100.978 75.7912 101.366 75.8551 101.784 75.8551C102.091 75.8551 102.359 75.8338 102.589 75.7912C102.819 75.7486 102.998 75.7145 103.126 75.6889L103.816 78.8466C103.595 78.9318 103.279 79.017 102.87 79.1023C102.461 79.196 101.95 79.2472 101.336 79.2557C100.331 79.2727 99.3931 79.0938 98.5238 78.7188C97.6545 78.3438 96.9513 77.7642 96.4144 76.9801C95.8775 76.196 95.609 75.2116 95.609 74.027V54.6591ZM111.931 67.3409V79H108.109V52.8182H111.88V62.5597H112.123C112.583 61.5028 113.286 60.6634 114.232 60.0412C115.178 59.419 116.414 59.108 117.94 59.108C119.286 59.108 120.462 59.3849 121.468 59.9389C122.482 60.4929 123.266 61.3196 123.82 62.419C124.383 63.5099 124.664 64.8736 124.664 66.5099V79H120.842V66.9702C120.842 65.5298 120.471 64.4134 119.729 63.6207C118.988 62.8196 117.957 62.419 116.636 62.419C115.732 62.419 114.923 62.6108 114.207 62.9943C113.499 63.3778 112.941 63.9403 112.532 64.6818C112.131 65.4148 111.931 66.3011 111.931 67.3409ZM138.228 79.3963C136.293 79.3963 134.627 78.983 133.229 78.1562C131.84 77.321 130.766 76.1491 130.008 74.6406C129.258 73.1236 128.883 71.3466 128.883 69.3097C128.883 67.2983 129.258 65.5256 130.008 63.9915C130.766 62.4574 131.823 61.2599 133.178 60.3991C134.542 59.5384 136.136 59.108 137.96 59.108C139.067 59.108 140.141 59.2912 141.181 59.6577C142.221 60.0241 143.154 60.5994 143.981 61.3835C144.808 62.1676 145.46 63.1861 145.937 64.4389C146.414 65.6832 146.653 67.196 146.653 68.9773V70.3324H131.043V67.4688H142.907C142.907 66.4631 142.702 65.5724 142.293 64.7969C141.884 64.0128 141.309 63.3949 140.567 62.9432C139.835 62.4915 138.974 62.2656 137.985 62.2656C136.911 62.2656 135.974 62.5298 135.173 63.0582C134.38 63.5781 133.766 64.2599 133.332 65.1037C132.906 65.9389 132.692 66.8466 132.692 67.8267V70.0639C132.692 71.3764 132.923 72.4929 133.383 73.4134C133.852 74.3338 134.504 75.0369 135.339 75.5227C136.174 76 137.15 76.2386 138.266 76.2386C138.991 76.2386 139.651 76.1364 140.248 75.9318C140.844 75.7187 141.36 75.4034 141.795 74.9858C142.229 74.5682 142.562 74.0526 142.792 73.4389L146.41 74.0909C146.12 75.1562 145.6 76.0895 144.85 76.8906C144.109 77.6832 143.175 78.3011 142.05 78.7443C140.934 79.179 139.66 79.3963 138.228 79.3963ZM175.136 64.1577L171.671 64.7713C171.526 64.3281 171.296 63.9062 170.981 63.5057C170.674 63.1051 170.256 62.777 169.728 62.5213C169.2 62.2656 168.539 62.1378 167.746 62.1378C166.664 62.1378 165.761 62.3807 165.036 62.8665C164.312 63.3437 163.95 63.9616 163.95 64.7202C163.95 65.3764 164.192 65.9048 164.678 66.3054C165.164 66.706 165.948 67.0341 167.031 67.2898L170.15 68.0057C171.957 68.4233 173.303 69.0668 174.19 69.9361C175.076 70.8054 175.519 71.9347 175.519 73.3239C175.519 74.5 175.178 75.5483 174.496 76.4688C173.823 77.3807 172.881 78.0966 171.671 78.6165C170.469 79.1364 169.076 79.3963 167.491 79.3963C165.292 79.3963 163.498 78.9276 162.109 77.9901C160.719 77.044 159.867 75.7017 159.552 73.9631L163.246 73.4006C163.477 74.3636 163.95 75.0923 164.665 75.5866C165.381 76.0724 166.315 76.3153 167.465 76.3153C168.718 76.3153 169.719 76.0554 170.469 75.5355C171.219 75.0071 171.594 74.3636 171.594 73.6051C171.594 72.9915 171.364 72.4759 170.904 72.0582C170.452 71.6406 169.758 71.3253 168.82 71.1122L165.496 70.3835C163.664 69.9659 162.309 69.3011 161.431 68.3892C160.562 67.4773 160.127 66.3224 160.127 64.9247C160.127 63.7656 160.451 62.7514 161.099 61.8821C161.746 61.0128 162.641 60.3352 163.783 59.8494C164.925 59.3551 166.234 59.108 167.708 59.108C169.83 59.108 171.501 59.5682 172.719 60.4886C173.938 61.4006 174.744 62.6236 175.136 64.1577ZM179.722 79V59.3636H183.544V79H179.722ZM181.652 56.3338C180.988 56.3338 180.417 56.1122 179.939 55.669C179.471 55.2173 179.236 54.6804 179.236 54.0582C179.236 53.4276 179.471 52.8906 179.939 52.4474C180.417 51.9957 180.988 51.7699 181.652 51.7699C182.317 51.7699 182.884 51.9957 183.353 52.4474C183.83 52.8906 184.069 53.4276 184.069 54.0582C184.069 54.6804 183.83 55.2173 183.353 55.669C182.884 56.1122 182.317 56.3338 181.652 56.3338ZM188.687 79V59.3636H192.356V62.5597H192.599C193.008 61.4773 193.677 60.6335 194.606 60.0284C195.535 59.4148 196.647 59.108 197.942 59.108C199.255 59.108 200.354 59.4148 201.241 60.0284C202.136 60.642 202.796 61.4858 203.222 62.5597H203.427C203.896 61.5114 204.641 60.6761 205.664 60.054C206.687 59.4233 207.906 59.108 209.32 59.108C211.102 59.108 212.555 59.6662 213.68 60.7827C214.813 61.8991 215.38 63.5824 215.38 65.8324V79H211.558V66.1903C211.558 64.8608 211.195 63.8977 210.471 63.3011C209.746 62.7045 208.881 62.4062 207.876 62.4062C206.631 62.4062 205.664 62.7898 204.974 63.5568C204.283 64.3153 203.938 65.2912 203.938 66.4844V79H200.129V65.9474C200.129 64.8821 199.796 64.0256 199.131 63.3778C198.467 62.7301 197.602 62.4062 196.536 62.4062C195.812 62.4062 195.143 62.598 194.529 62.9815C193.924 63.3565 193.434 63.8807 193.059 64.554C192.692 65.2273 192.509 66.0071 192.509 66.8935V79H188.687ZM220.503 86.3636V59.3636H224.236V62.5469H224.556C224.777 62.1378 225.097 61.6648 225.515 61.1278C225.932 60.5909 226.512 60.1222 227.253 59.7216C227.995 59.3125 228.975 59.108 230.194 59.108C231.779 59.108 233.194 59.5085 234.438 60.3097C235.682 61.1108 236.658 62.2656 237.365 63.7741C238.081 65.2827 238.439 67.098 238.439 69.2202C238.439 71.3423 238.086 73.1619 237.378 74.679C236.671 76.1875 235.699 77.3509 234.463 78.169C233.228 78.9787 231.817 79.3835 230.232 79.3835C229.039 79.3835 228.063 79.1832 227.304 78.7827C226.554 78.3821 225.966 77.9134 225.54 77.3764C225.114 76.8395 224.786 76.3622 224.556 75.9446H224.326V86.3636H220.503ZM224.249 69.1818C224.249 70.5625 224.449 71.7727 224.85 72.8125C225.25 73.8523 225.83 74.6662 226.588 75.2543C227.347 75.8338 228.276 76.1236 229.375 76.1236C230.517 76.1236 231.472 75.821 232.239 75.2159C233.006 74.6023 233.586 73.7713 233.978 72.723C234.378 71.6747 234.578 70.4943 234.578 69.1818C234.578 67.8864 234.382 66.723 233.99 65.6918C233.607 64.6605 233.027 63.8466 232.252 63.25C231.485 62.6534 230.526 62.3551 229.375 62.3551C228.267 62.3551 227.33 62.6406 226.563 63.2116C225.804 63.7827 225.229 64.5795 224.837 65.6023C224.445 66.625 224.249 67.8182 224.249 69.1818ZM246.544 52.8182V79H242.722V52.8182H246.544ZM251.687 79V59.3636H255.509V79H251.687ZM253.617 56.3338C252.952 56.3338 252.381 56.1122 251.904 55.669C251.435 55.2173 251.201 54.6804 251.201 54.0582C251.201 53.4276 251.435 52.8906 251.904 52.4474C252.381 51.9957 252.952 51.7699 253.617 51.7699C254.282 51.7699 254.849 51.9957 255.317 52.4474C255.795 52.8906 256.033 53.4276 256.033 54.0582C256.033 54.6804 255.795 55.2173 255.317 55.669C254.849 56.1122 254.282 56.3338 253.617 56.3338ZM268.923 79.3963C267.022 79.3963 265.386 78.9659 264.014 78.1051C262.65 77.2358 261.602 76.0384 260.869 74.5128C260.136 72.9872 259.77 71.2401 259.77 69.2713C259.77 67.277 260.145 65.517 260.895 63.9915C261.645 62.4574 262.701 61.2599 264.065 60.3991C265.429 59.5384 267.035 59.108 268.885 59.108C270.376 59.108 271.706 59.3849 272.873 59.9389C274.041 60.4844 274.983 61.2514 275.699 62.2401C276.423 63.2287 276.853 64.3835 276.99 65.7045H273.27C273.065 64.7841 272.596 63.9915 271.863 63.3267C271.139 62.6619 270.167 62.3295 268.949 62.3295C267.883 62.3295 266.95 62.6108 266.149 63.1733C265.356 63.7273 264.738 64.5199 264.295 65.5511C263.852 66.5739 263.63 67.7841 263.63 69.1818C263.63 70.6136 263.848 71.8494 264.282 72.8892C264.717 73.929 265.331 74.7344 266.123 75.3054C266.924 75.8764 267.866 76.1619 268.949 76.1619C269.673 76.1619 270.329 76.0298 270.917 75.7656C271.514 75.4929 272.012 75.1051 272.413 74.6023C272.822 74.0994 273.108 73.4943 273.27 72.7869H276.99C276.853 74.0568 276.44 75.1903 275.75 76.1875C275.059 77.1847 274.135 77.9687 272.975 78.5398C271.825 79.1108 270.474 79.3963 268.923 79.3963ZM281.077 79V59.3636H284.9V79H281.077ZM283.008 56.3338C282.343 56.3338 281.772 56.1122 281.295 55.669C280.826 55.2173 280.592 54.6804 280.592 54.0582C280.592 53.4276 280.826 52.8906 281.295 52.4474C281.772 51.9957 282.343 51.7699 283.008 51.7699C283.673 51.7699 284.239 51.9957 284.708 52.4474C285.185 52.8906 285.424 53.4276 285.424 54.0582C285.424 54.6804 285.185 55.2173 284.708 55.669C284.239 56.1122 283.673 56.3338 283.008 56.3338ZM299.208 59.3636V62.4318H288.483V59.3636H299.208ZM291.359 54.6591H295.181V73.2344C295.181 73.9759 295.292 74.5341 295.514 74.9091C295.735 75.2756 296.021 75.527 296.37 75.6634C296.728 75.7912 297.116 75.8551 297.534 75.8551C297.841 75.8551 298.109 75.8338 298.339 75.7912C298.569 75.7486 298.748 75.7145 298.876 75.6889L299.566 78.8466C299.345 78.9318 299.029 79.017 298.62 79.1023C298.211 79.196 297.7 79.2472 297.086 79.2557C296.081 79.2727 295.143 79.0938 294.274 78.7188C293.404 78.3438 292.701 77.7642 292.164 76.9801C291.627 76.196 291.359 75.2116 291.359 74.027V54.6591ZM305.853 86.3636C305.282 86.3636 304.762 86.3168 304.293 86.223C303.825 86.1378 303.475 86.044 303.245 85.9418L304.165 82.8097C304.864 82.9972 305.487 83.0781 306.032 83.0526C306.577 83.027 307.059 82.8224 307.477 82.4389C307.903 82.0554 308.278 81.429 308.602 80.5597L309.075 79.2557L301.89 59.3636H305.981L310.954 74.6023H311.158L316.131 59.3636H320.235L312.143 81.6207C311.768 82.6435 311.29 83.5085 310.711 84.2159C310.131 84.9318 309.441 85.4688 308.64 85.8267C307.839 86.1847 306.91 86.3636 305.853 86.3636ZM341.626 79.3963C339.785 79.3963 338.179 78.9744 336.806 78.1307C335.434 77.2869 334.369 76.1065 333.61 74.5895C332.852 73.0724 332.473 71.2997 332.473 69.2713C332.473 67.2344 332.852 65.4531 333.61 63.9276C334.369 62.402 335.434 61.2173 336.806 60.3736C338.179 59.5298 339.785 59.108 341.626 59.108C343.467 59.108 345.074 59.5298 346.446 60.3736C347.818 61.2173 348.883 62.402 349.642 63.9276C350.4 65.4531 350.779 67.2344 350.779 69.2713C350.779 71.2997 350.4 73.0724 349.642 74.5895C348.883 76.1065 347.818 77.2869 346.446 78.1307C345.074 78.9744 343.467 79.3963 341.626 79.3963ZM341.639 76.1875C342.832 76.1875 343.821 75.8722 344.605 75.2415C345.389 74.6108 345.968 73.7713 346.343 72.723C346.727 71.6747 346.919 70.5199 346.919 69.2585C346.919 68.0057 346.727 66.8551 346.343 65.8068C345.968 64.75 345.389 63.902 344.605 63.2628C343.821 62.6236 342.832 62.304 341.639 62.304C340.437 62.304 339.44 62.6236 338.647 63.2628C337.863 63.902 337.279 64.75 336.896 65.8068C336.521 66.8551 336.333 68.0057 336.333 69.2585C336.333 70.5199 336.521 71.6747 336.896 72.723C337.279 73.7713 337.863 74.6108 338.647 75.2415C339.44 75.8722 340.437 76.1875 341.639 76.1875ZM364.391 59.3636V62.4318H353.295V59.3636H364.391ZM356.337 79V57.0881C356.337 55.8608 356.606 54.8423 357.143 54.0327C357.68 53.2145 358.391 52.6051 359.278 52.2045C360.164 51.7955 361.127 51.5909 362.167 51.5909C362.934 51.5909 363.59 51.6548 364.136 51.7827C364.681 51.902 365.086 52.0128 365.35 52.1151L364.455 55.2088C364.276 55.1577 364.046 55.098 363.765 55.0298C363.484 54.9531 363.143 54.9148 362.742 54.9148C361.813 54.9148 361.148 55.1449 360.748 55.6051C360.356 56.0653 360.16 56.7301 360.16 57.5994V79H356.337ZM11.7358 103.364V106.432H1.00994V103.364H11.7358ZM3.88636 98.6591H7.70881V117.234C7.70881 117.976 7.8196 118.534 8.04119 118.909C8.26278 119.276 8.5483 119.527 8.89773 119.663C9.25568 119.791 9.64347 119.855 10.0611 119.855C10.3679 119.855 10.6364 119.834 10.8665 119.791C11.0966 119.749 11.2756 119.714 11.4034 119.689L12.0938 122.847C11.8722 122.932 11.5568 123.017 11.1477 123.102C10.7386 123.196 10.2273 123.247 9.61364 123.256C8.60795 123.273 7.67045 123.094 6.80114 122.719C5.93182 122.344 5.22869 121.764 4.69176 120.98C4.15483 120.196 3.88636 119.212 3.88636 118.027V98.6591ZM20.2085 111.341V123H16.386V96.8182H20.1573V106.56H20.4002C20.8604 105.503 21.5636 104.663 22.5096 104.041C23.4556 103.419 24.6914 103.108 26.217 103.108C27.5636 103.108 28.7397 103.385 29.7454 103.939C30.7596 104.493 31.5437 105.32 32.0977 106.419C32.6602 107.51 32.9414 108.874 32.9414 110.51V123H29.119V110.97C29.119 109.53 28.7482 108.413 28.0067 107.621C27.2653 106.82 26.234 106.419 24.913 106.419C24.0096 106.419 23.1999 106.611 22.484 106.994C21.7766 107.378 21.2184 107.94 20.8093 108.682C20.4087 109.415 20.2085 110.301 20.2085 111.341ZM46.5053 123.396C44.5707 123.396 42.9045 122.983 41.5067 122.156C40.1175 121.321 39.0437 120.149 38.2852 118.641C37.5352 117.124 37.1602 115.347 37.1602 113.31C37.1602 111.298 37.5352 109.526 38.2852 107.991C39.0437 106.457 40.1005 105.26 41.4556 104.399C42.8192 103.538 44.413 103.108 46.2369 103.108C47.3448 103.108 48.4187 103.291 49.4585 103.658C50.4982 104.024 51.4315 104.599 52.2582 105.384C53.0849 106.168 53.7369 107.186 54.2141 108.439C54.6914 109.683 54.93 111.196 54.93 112.977V114.332H39.3207V111.469H51.1843C51.1843 110.463 50.9798 109.572 50.5707 108.797C50.1616 108.013 49.5863 107.395 48.8448 106.943C48.1119 106.491 47.2511 106.266 46.2624 106.266C45.1886 106.266 44.2511 106.53 43.4499 107.058C42.6573 107.578 42.0437 108.26 41.609 109.104C41.1829 109.939 40.9698 110.847 40.9698 111.827V114.064C40.9698 115.376 41.1999 116.493 41.6602 117.413C42.1289 118.334 42.7809 119.037 43.6161 119.523C44.4513 120 45.4272 120.239 46.5437 120.239C47.2681 120.239 47.9286 120.136 48.5252 119.932C49.1218 119.719 49.6374 119.403 50.0721 118.986C50.5067 118.568 50.8391 118.053 51.0692 117.439L54.6871 118.091C54.3974 119.156 53.8775 120.089 53.1275 120.891C52.386 121.683 51.4528 122.301 50.3278 122.744C49.2113 123.179 47.9371 123.396 46.5053 123.396ZM83.413 108.158L79.9485 108.771C79.8036 108.328 79.5735 107.906 79.2582 107.506C78.9513 107.105 78.5337 106.777 78.0053 106.521C77.4769 106.266 76.8164 106.138 76.0238 106.138C74.9414 106.138 74.038 106.381 73.3136 106.866C72.5891 107.344 72.2269 107.962 72.2269 108.72C72.2269 109.376 72.4698 109.905 72.9556 110.305C73.4414 110.706 74.2255 111.034 75.3079 111.29L78.4272 112.006C80.234 112.423 81.5806 113.067 82.467 113.936C83.3533 114.805 83.7965 115.935 83.7965 117.324C83.7965 118.5 83.4556 119.548 82.7738 120.469C82.1005 121.381 81.1587 122.097 79.9485 122.616C78.7468 123.136 77.3533 123.396 75.7681 123.396C73.5692 123.396 71.7752 122.928 70.386 121.99C68.9968 121.044 68.1445 119.702 67.8292 117.963L71.5238 117.401C71.7539 118.364 72.2269 119.092 72.9428 119.587C73.6587 120.072 74.592 120.315 75.7425 120.315C76.9954 120.315 77.9968 120.055 78.7468 119.536C79.4968 119.007 79.8718 118.364 79.8718 117.605C79.8718 116.991 79.6417 116.476 79.1815 116.058C78.7298 115.641 78.0352 115.325 77.0977 115.112L73.7738 114.384C71.9414 113.966 70.5863 113.301 69.7085 112.389C68.8391 111.477 68.4045 110.322 68.4045 108.925C68.4045 107.766 68.7283 106.751 69.3761 105.882C70.0238 105.013 70.9187 104.335 72.0607 103.849C73.2028 103.355 74.511 103.108 75.9854 103.108C78.1076 103.108 79.7781 103.568 80.9968 104.489C82.2156 105.401 83.021 106.624 83.413 108.158ZM96.4624 123.396C94.5277 123.396 92.8615 122.983 91.4638 122.156C90.0746 121.321 89.0007 120.149 88.2422 118.641C87.4922 117.124 87.1172 115.347 87.1172 113.31C87.1172 111.298 87.4922 109.526 88.2422 107.991C89.0007 106.457 90.0575 105.26 91.4126 104.399C92.7763 103.538 94.37 103.108 96.1939 103.108C97.3018 103.108 98.3757 103.291 99.4155 103.658C100.455 104.024 101.388 104.599 102.215 105.384C103.042 106.168 103.694 107.186 104.171 108.439C104.648 109.683 104.887 111.196 104.887 112.977V114.332H89.2777V111.469H101.141C101.141 110.463 100.937 109.572 100.528 108.797C100.119 108.013 99.5433 107.395 98.8018 106.943C98.0689 106.491 97.2081 106.266 96.2195 106.266C95.1456 106.266 94.2081 106.53 93.407 107.058C92.6143 107.578 92.0007 108.26 91.5661 109.104C91.1399 109.939 90.9268 110.847 90.9268 111.827V114.064C90.9268 115.376 91.157 116.493 91.6172 117.413C92.0859 118.334 92.7379 119.037 93.5732 119.523C94.4084 120 95.3842 120.239 96.5007 120.239C97.2251 120.239 97.8857 120.136 98.4822 119.932C99.0788 119.719 99.5945 119.403 100.029 118.986C100.464 118.568 100.796 118.053 101.026 117.439L104.644 118.091C104.354 119.156 103.835 120.089 103.085 120.891C102.343 121.683 101.41 122.301 100.285 122.744C99.1683 123.179 97.8942 123.396 96.4624 123.396ZM109.128 123V103.364H112.823V106.483H113.027C113.385 105.426 114.016 104.595 114.919 103.99C115.831 103.376 116.863 103.07 118.013 103.07C118.252 103.07 118.533 103.078 118.857 103.095C119.189 103.112 119.449 103.134 119.637 103.159V106.815C119.483 106.773 119.211 106.726 118.819 106.675C118.426 106.615 118.034 106.585 117.642 106.585C116.739 106.585 115.934 106.777 115.226 107.161C114.527 107.536 113.973 108.06 113.564 108.733C113.155 109.398 112.951 110.156 112.951 111.009V123H109.128ZM140.341 103.364L133.22 123H129.129L121.995 103.364H126.099L131.072 118.474H131.277L136.237 103.364H140.341ZM143.933 123V103.364H147.755V123H143.933ZM145.863 100.334C145.199 100.334 144.627 100.112 144.15 99.669C143.681 99.2173 143.447 98.6804 143.447 98.0582C143.447 97.4276 143.681 96.8906 144.15 96.4474C144.627 95.9957 145.199 95.7699 145.863 95.7699C146.528 95.7699 147.095 95.9957 147.564 96.4474C148.041 96.8906 148.279 97.4276 148.279 98.0582C148.279 98.6804 148.041 99.2173 147.564 99.669C147.095 100.112 146.528 100.334 145.863 100.334ZM161.169 123.396C159.268 123.396 157.632 122.966 156.26 122.105C154.896 121.236 153.848 120.038 153.115 118.513C152.382 116.987 152.016 115.24 152.016 113.271C152.016 111.277 152.391 109.517 153.141 107.991C153.891 106.457 154.947 105.26 156.311 104.399C157.675 103.538 159.281 103.108 161.131 103.108C162.622 103.108 163.952 103.385 165.119 103.939C166.287 104.484 167.229 105.251 167.945 106.24C168.669 107.229 169.099 108.384 169.236 109.705H165.516C165.311 108.784 164.842 107.991 164.109 107.327C163.385 106.662 162.413 106.33 161.195 106.33C160.129 106.33 159.196 106.611 158.395 107.173C157.602 107.727 156.984 108.52 156.541 109.551C156.098 110.574 155.876 111.784 155.876 113.182C155.876 114.614 156.094 115.849 156.528 116.889C156.963 117.929 157.577 118.734 158.369 119.305C159.17 119.876 160.112 120.162 161.195 120.162C161.919 120.162 162.575 120.03 163.163 119.766C163.76 119.493 164.259 119.105 164.659 118.602C165.068 118.099 165.354 117.494 165.516 116.787H169.236C169.099 118.057 168.686 119.19 167.996 120.188C167.305 121.185 166.381 121.969 165.222 122.54C164.071 123.111 162.72 123.396 161.169 123.396ZM181.787 123.396C179.852 123.396 178.186 122.983 176.788 122.156C175.399 121.321 174.325 120.149 173.566 118.641C172.816 117.124 172.441 115.347 172.441 113.31C172.441 111.298 172.816 109.526 173.566 107.991C174.325 106.457 175.382 105.26 176.737 104.399C178.1 103.538 179.694 103.108 181.518 103.108C182.626 103.108 183.7 103.291 184.74 103.658C185.779 104.024 186.713 104.599 187.539 105.384C188.366 106.168 189.018 107.186 189.495 108.439C189.973 109.683 190.211 111.196 190.211 112.977V114.332H174.602V111.469H186.466C186.466 110.463 186.261 109.572 185.852 108.797C185.443 108.013 184.868 107.395 184.126 106.943C183.393 106.491 182.532 106.266 181.544 106.266C180.47 106.266 179.532 106.53 178.731 107.058C177.939 107.578 177.325 108.26 176.89 109.104C176.464 109.939 176.251 110.847 176.251 111.827V114.064C176.251 115.376 176.481 116.493 176.941 117.413C177.41 118.334 178.062 119.037 178.897 119.523C179.733 120 180.708 120.239 181.825 120.239C182.549 120.239 183.21 120.136 183.806 119.932C184.403 119.719 184.919 119.403 185.353 118.986C185.788 118.568 186.12 118.053 186.35 117.439L189.968 118.091C189.679 119.156 189.159 120.089 188.409 120.891C187.667 121.683 186.734 122.301 185.609 122.744C184.493 123.179 183.218 123.396 181.787 123.396ZM209.694 123.435C208.45 123.435 207.325 123.205 206.319 122.744C205.314 122.276 204.517 121.598 203.929 120.712C203.349 119.825 203.059 118.739 203.059 117.452C203.059 116.344 203.272 115.432 203.699 114.716C204.125 114 204.7 113.433 205.424 113.016C206.149 112.598 206.958 112.283 207.853 112.07C208.748 111.857 209.66 111.695 210.589 111.584C211.765 111.447 212.72 111.337 213.453 111.251C214.186 111.158 214.718 111.009 215.051 110.804C215.383 110.599 215.549 110.267 215.549 109.807V109.717C215.549 108.601 215.234 107.736 214.603 107.122C213.981 106.509 213.052 106.202 211.816 106.202C210.529 106.202 209.515 106.487 208.774 107.058C208.041 107.621 207.534 108.247 207.252 108.938L203.66 108.119C204.086 106.926 204.708 105.963 205.527 105.23C206.353 104.489 207.304 103.952 208.377 103.619C209.451 103.278 210.581 103.108 211.765 103.108C212.549 103.108 213.38 103.202 214.258 103.389C215.145 103.568 215.971 103.901 216.738 104.386C217.514 104.872 218.149 105.567 218.643 106.47C219.137 107.365 219.385 108.528 219.385 109.96V123H215.652V120.315H215.498C215.251 120.81 214.88 121.295 214.386 121.773C213.892 122.25 213.257 122.646 212.481 122.962C211.706 123.277 210.777 123.435 209.694 123.435ZM210.525 120.366C211.582 120.366 212.485 120.158 213.235 119.74C213.994 119.322 214.569 118.777 214.961 118.104C215.362 117.422 215.562 116.693 215.562 115.918V113.386C215.426 113.523 215.162 113.651 214.77 113.77C214.386 113.881 213.947 113.979 213.453 114.064C212.958 114.141 212.477 114.213 212.008 114.281C211.539 114.341 211.147 114.392 210.832 114.435C210.091 114.528 209.413 114.686 208.799 114.908C208.194 115.129 207.708 115.449 207.342 115.866C206.984 116.276 206.805 116.821 206.805 117.503C206.805 118.449 207.154 119.165 207.853 119.651C208.552 120.128 209.443 120.366 210.525 120.366ZM228.298 111.341V123H224.476V103.364H228.145V106.56H228.388C228.839 105.52 229.547 104.685 230.51 104.054C231.482 103.423 232.705 103.108 234.179 103.108C235.517 103.108 236.689 103.389 237.695 103.952C238.7 104.506 239.48 105.332 240.034 106.432C240.588 107.531 240.865 108.891 240.865 110.51V123H237.043V110.97C237.043 109.547 236.672 108.435 235.93 107.634C235.189 106.824 234.17 106.419 232.875 106.419C231.989 106.419 231.2 106.611 230.51 106.994C229.828 107.378 229.287 107.94 228.886 108.682C228.494 109.415 228.298 110.301 228.298 111.341ZM253.342 123.384C251.757 123.384 250.342 122.979 249.098 122.169C247.862 121.351 246.891 120.187 246.183 118.679C245.484 117.162 245.135 115.342 245.135 113.22C245.135 111.098 245.489 109.283 246.196 107.774C246.912 106.266 247.892 105.111 249.136 104.31C250.381 103.509 251.791 103.108 253.368 103.108C254.587 103.108 255.567 103.312 256.308 103.722C257.058 104.122 257.638 104.591 258.047 105.128C258.464 105.665 258.788 106.138 259.018 106.547H259.249V96.8182H263.071V123H259.338V119.945H259.018C258.788 120.362 258.456 120.839 258.021 121.376C257.595 121.913 257.007 122.382 256.257 122.783C255.507 123.183 254.536 123.384 253.342 123.384ZM254.186 120.124C255.286 120.124 256.214 119.834 256.973 119.254C257.74 118.666 258.32 117.852 258.712 116.812C259.112 115.773 259.312 114.562 259.312 113.182C259.312 111.818 259.116 110.625 258.724 109.602C258.332 108.58 257.757 107.783 256.999 107.212C256.24 106.641 255.303 106.355 254.186 106.355C253.036 106.355 252.077 106.653 251.31 107.25C250.543 107.847 249.963 108.661 249.571 109.692C249.188 110.723 248.996 111.886 248.996 113.182C248.996 114.494 249.192 115.675 249.584 116.723C249.976 117.771 250.555 118.602 251.322 119.216C252.098 119.821 253.053 120.124 254.186 120.124ZM287.22 103.364V106.432H276.494V103.364H287.22ZM279.371 98.6591H283.193V117.234C283.193 117.976 283.304 118.534 283.526 118.909C283.747 119.276 284.033 119.527 284.382 119.663C284.74 119.791 285.128 119.855 285.545 119.855C285.852 119.855 286.121 119.834 286.351 119.791C286.581 119.749 286.76 119.714 286.888 119.689L287.578 122.847C287.357 122.932 287.041 123.017 286.632 123.102C286.223 123.196 285.712 123.247 285.098 123.256C284.092 123.273 283.155 123.094 282.286 122.719C281.416 122.344 280.713 121.764 280.176 120.98C279.639 120.196 279.371 119.212 279.371 118.027V98.6591ZM295.693 111.341V123H291.87V96.8182H295.642V106.56H295.885C296.345 105.503 297.048 104.663 297.994 104.041C298.94 103.419 300.176 103.108 301.701 103.108C303.048 103.108 304.224 103.385 305.23 103.939C306.244 104.493 307.028 105.32 307.582 106.419C308.145 107.51 308.426 108.874 308.426 110.51V123H304.603V110.97C304.603 109.53 304.233 108.413 303.491 107.621C302.75 106.82 301.718 106.419 300.397 106.419C299.494 106.419 298.684 106.611 297.968 106.994C297.261 107.378 296.703 107.94 296.294 108.682C295.893 109.415 295.693 110.301 295.693 111.341ZM321.99 123.396C320.055 123.396 318.389 122.983 316.991 122.156C315.602 121.321 314.528 120.149 313.77 118.641C313.02 117.124 312.645 115.347 312.645 113.31C312.645 111.298 313.02 109.526 313.77 107.991C314.528 106.457 315.585 105.26 316.94 104.399C318.304 103.538 319.897 103.108 321.721 103.108C322.829 103.108 323.903 103.291 324.943 103.658C325.983 104.024 326.916 104.599 327.743 105.384C328.569 106.168 329.221 107.186 329.699 108.439C330.176 109.683 330.414 111.196 330.414 112.977V114.332H314.805V111.469H326.669C326.669 110.463 326.464 109.572 326.055 108.797C325.646 108.013 325.071 107.395 324.329 106.943C323.596 106.491 322.735 106.266 321.747 106.266C320.673 106.266 319.735 106.53 318.934 107.058C318.142 107.578 317.528 108.26 317.093 109.104C316.667 109.939 316.454 110.847 316.454 111.827V114.064C316.454 115.376 316.684 116.493 317.145 117.413C317.613 118.334 318.265 119.037 319.1 119.523C319.936 120 320.912 120.239 322.028 120.239C322.752 120.239 323.413 120.136 324.01 119.932C324.606 119.719 325.122 119.403 325.556 118.986C325.991 118.568 326.324 118.053 326.554 117.439L330.172 118.091C329.882 119.156 329.362 120.089 328.612 120.891C327.87 121.683 326.937 122.301 325.812 122.744C324.696 123.179 323.422 123.396 321.99 123.396ZM2.5696 174.364V147.364H6.30256V150.547H6.62216C6.84375 150.138 7.16335 149.665 7.58097 149.128C7.99858 148.591 8.57813 148.122 9.3196 147.722C10.0611 147.312 11.0412 147.108 12.2599 147.108C13.8452 147.108 15.2599 147.509 16.5043 148.31C17.7486 149.111 18.7244 150.266 19.4318 151.774C20.1477 153.283 20.5057 155.098 20.5057 157.22C20.5057 159.342 20.152 161.162 19.4446 162.679C18.7372 164.187 17.7656 165.351 16.5298 166.169C15.294 166.979 13.8835 167.384 12.2983 167.384C11.1051 167.384 10.1293 167.183 9.37074 166.783C8.62074 166.382 8.03267 165.913 7.60653 165.376C7.1804 164.839 6.85227 164.362 6.62216 163.945H6.39205V174.364H2.5696ZM6.31534 157.182C6.31534 158.562 6.51563 159.773 6.91619 160.812C7.31676 161.852 7.89631 162.666 8.65483 163.254C9.41335 163.834 10.3423 164.124 11.4418 164.124C12.5838 164.124 13.5384 163.821 14.3054 163.216C15.0724 162.602 15.652 161.771 16.044 160.723C16.4446 159.675 16.6449 158.494 16.6449 157.182C16.6449 155.886 16.4489 154.723 16.0568 153.692C15.6733 152.661 15.0938 151.847 14.3182 151.25C13.5511 150.653 12.5923 150.355 11.4418 150.355C10.3338 150.355 9.39631 150.641 8.62926 151.212C7.87074 151.783 7.29545 152.58 6.90341 153.602C6.51136 154.625 6.31534 155.818 6.31534 157.182ZM24.7884 167V147.364H28.483V150.483H28.6875C29.0455 149.426 29.6761 148.595 30.5795 147.99C31.4915 147.376 32.5227 147.07 33.6733 147.07C33.9119 147.07 34.1932 147.078 34.517 147.095C34.8494 147.112 35.1094 147.134 35.2969 147.159V150.815C35.1435 150.773 34.8707 150.726 34.4787 150.675C34.0866 150.615 33.6946 150.585 33.3026 150.585C32.3991 150.585 31.5938 150.777 30.8864 151.161C30.1875 151.536 29.6335 152.06 29.2244 152.733C28.8153 153.398 28.6108 154.156 28.6108 155.009V167H24.7884ZM46.1729 167.396C44.332 167.396 42.7255 166.974 41.3533 166.131C39.9812 165.287 38.9158 164.107 38.1573 162.589C37.3988 161.072 37.0195 159.3 37.0195 157.271C37.0195 155.234 37.3988 153.453 38.1573 151.928C38.9158 150.402 39.9812 149.217 41.3533 148.374C42.7255 147.53 44.332 147.108 46.1729 147.108C48.0138 147.108 49.6204 147.53 50.9925 148.374C52.3647 149.217 53.43 150.402 54.1886 151.928C54.9471 153.453 55.3264 155.234 55.3264 157.271C55.3264 159.3 54.9471 161.072 54.1886 162.589C53.43 164.107 52.3647 165.287 50.9925 166.131C49.6204 166.974 48.0138 167.396 46.1729 167.396ZM46.1857 164.188C47.3789 164.188 48.3675 163.872 49.1516 163.241C49.9357 162.611 50.5153 161.771 50.8903 160.723C51.2738 159.675 51.4656 158.52 51.4656 157.259C51.4656 156.006 51.2738 154.855 50.8903 153.807C50.5153 152.75 49.9357 151.902 49.1516 151.263C48.3675 150.624 47.3789 150.304 46.1857 150.304C44.984 150.304 43.9869 150.624 43.1942 151.263C42.4102 151.902 41.8263 152.75 41.4428 153.807C41.0678 154.855 40.8803 156.006 40.8803 157.259C40.8803 158.52 41.0678 159.675 41.4428 160.723C41.8263 161.771 42.4102 162.611 43.1942 163.241C43.9869 163.872 44.984 164.188 46.1857 164.188ZM59.593 167V147.364H63.2621V150.56H63.505C63.9141 149.477 64.5831 148.634 65.5121 148.028C66.4411 147.415 67.5533 147.108 68.8487 147.108C70.1612 147.108 71.2607 147.415 72.147 148.028C73.0419 148.642 73.7024 149.486 74.1286 150.56H74.3331C74.8018 149.511 75.5476 148.676 76.5703 148.054C77.593 147.423 78.8118 147.108 80.2266 147.108C82.0078 147.108 83.4609 147.666 84.5859 148.783C85.7195 149.899 86.2862 151.582 86.2862 153.832V167H82.4638V154.19C82.4638 152.861 82.1016 151.898 81.3771 151.301C80.6527 150.705 79.7876 150.406 78.782 150.406C77.5376 150.406 76.5703 150.79 75.88 151.557C75.1896 152.315 74.8445 153.291 74.8445 154.484V167H71.0348V153.947C71.0348 152.882 70.7024 152.026 70.0376 151.378C69.3729 150.73 68.5078 150.406 67.4425 150.406C66.718 150.406 66.049 150.598 65.4354 150.982C64.8303 151.357 64.3402 151.881 63.9652 152.554C63.5987 153.227 63.4155 154.007 63.4155 154.893V167H59.593ZM91.4094 174.364V147.364H95.1424V150.547H95.462C95.6836 150.138 96.0032 149.665 96.4208 149.128C96.8384 148.591 97.418 148.122 98.1594 147.722C98.9009 147.312 99.881 147.108 101.1 147.108C102.685 147.108 104.1 147.509 105.344 148.31C106.588 149.111 107.564 150.266 108.272 151.774C108.988 153.283 109.346 155.098 109.346 157.22C109.346 159.342 108.992 161.162 108.284 162.679C107.577 164.187 106.605 165.351 105.37 166.169C104.134 166.979 102.723 167.384 101.138 167.384C99.945 167.384 98.9691 167.183 98.2106 166.783C97.4606 166.382 96.8725 165.913 96.4464 165.376C96.0202 164.839 95.6921 164.362 95.462 163.945H95.2319V174.364H91.4094ZM95.1552 157.182C95.1552 158.562 95.3555 159.773 95.756 160.812C96.1566 161.852 96.7362 162.666 97.4947 163.254C98.2532 163.834 99.1822 164.124 100.282 164.124C101.424 164.124 102.378 163.821 103.145 163.216C103.912 162.602 104.492 161.771 104.884 160.723C105.284 159.675 105.485 158.494 105.485 157.182C105.485 155.886 105.289 154.723 104.897 153.692C104.513 152.661 103.934 151.847 103.158 151.25C102.391 150.653 101.432 150.355 100.282 150.355C99.1737 150.355 98.2362 150.641 97.4691 151.212C96.7106 151.783 96.1353 152.58 95.7433 153.602C95.3512 154.625 95.1552 155.818 95.1552 157.182ZM122.794 147.364V150.432H112.069V147.364H122.794ZM114.945 142.659H118.767V161.234C118.767 161.976 118.878 162.534 119.1 162.909C119.321 163.276 119.607 163.527 119.956 163.663C120.314 163.791 120.702 163.855 121.12 163.855C121.426 163.855 121.695 163.834 121.925 163.791C122.155 163.749 122.334 163.714 122.462 163.689L123.152 166.847C122.931 166.932 122.615 167.017 122.206 167.102C121.797 167.196 121.286 167.247 120.672 167.256C119.667 167.273 118.729 167.094 117.86 166.719C116.99 166.344 116.287 165.764 115.75 164.98C115.213 164.196 114.945 163.212 114.945 162.027V142.659ZM144.821 167.396C142.921 167.396 141.284 166.966 139.912 166.105C138.549 165.236 137.5 164.038 136.767 162.513C136.034 160.987 135.668 159.24 135.668 157.271C135.668 155.277 136.043 153.517 136.793 151.991C137.543 150.457 138.6 149.26 139.963 148.399C141.327 147.538 142.934 147.108 144.783 147.108C146.275 147.108 147.604 147.385 148.772 147.939C149.939 148.484 150.881 149.251 151.597 150.24C152.321 151.229 152.752 152.384 152.888 153.705H149.168C148.963 152.784 148.495 151.991 147.762 151.327C147.037 150.662 146.066 150.33 144.847 150.33C143.782 150.33 142.848 150.611 142.047 151.173C141.255 151.727 140.637 152.52 140.194 153.551C139.75 154.574 139.529 155.784 139.529 157.182C139.529 158.614 139.746 159.849 140.181 160.889C140.615 161.929 141.229 162.734 142.022 163.305C142.823 163.876 143.765 164.162 144.847 164.162C145.571 164.162 146.228 164.03 146.816 163.766C147.412 163.493 147.911 163.105 148.311 162.602C148.721 162.099 149.006 161.494 149.168 160.787H152.888C152.752 162.057 152.338 163.19 151.648 164.188C150.958 165.185 150.033 165.969 148.874 166.54C147.723 167.111 146.373 167.396 144.821 167.396ZM169.415 158.857V147.364H173.25V167H169.491V163.599H169.287C168.835 164.648 168.111 165.521 167.114 166.22C166.125 166.911 164.893 167.256 163.419 167.256C162.158 167.256 161.041 166.979 160.07 166.425C159.107 165.862 158.348 165.031 157.794 163.932C157.249 162.832 156.976 161.473 156.976 159.854V147.364H160.798V159.393C160.798 160.732 161.169 161.797 161.911 162.589C162.652 163.382 163.615 163.778 164.8 163.778C165.516 163.778 166.227 163.599 166.935 163.241C167.651 162.884 168.243 162.342 168.712 161.618C169.189 160.893 169.423 159.973 169.415 158.857ZM193.1 152.158L189.636 152.771C189.491 152.328 189.261 151.906 188.946 151.506C188.639 151.105 188.221 150.777 187.693 150.521C187.164 150.266 186.504 150.138 185.711 150.138C184.629 150.138 183.725 150.381 183.001 150.866C182.277 151.344 181.914 151.962 181.914 152.72C181.914 153.376 182.157 153.905 182.643 154.305C183.129 154.706 183.913 155.034 184.995 155.29L188.115 156.006C189.922 156.423 191.268 157.067 192.154 157.936C193.041 158.805 193.484 159.935 193.484 161.324C193.484 162.5 193.143 163.548 192.461 164.469C191.788 165.381 190.846 166.097 189.636 166.616C188.434 167.136 187.041 167.396 185.456 167.396C183.257 167.396 181.463 166.928 180.074 165.99C178.684 165.044 177.832 163.702 177.517 161.963L181.211 161.401C181.441 162.364 181.914 163.092 182.63 163.587C183.346 164.072 184.279 164.315 185.43 164.315C186.683 164.315 187.684 164.055 188.434 163.536C189.184 163.007 189.559 162.364 189.559 161.605C189.559 160.991 189.329 160.476 188.869 160.058C188.417 159.641 187.723 159.325 186.785 159.112L183.461 158.384C181.629 157.966 180.274 157.301 179.396 156.389C178.527 155.477 178.092 154.322 178.092 152.925C178.092 151.766 178.416 150.751 179.064 149.882C179.711 149.013 180.606 148.335 181.748 147.849C182.89 147.355 184.199 147.108 185.673 147.108C187.795 147.108 189.466 147.568 190.684 148.489C191.903 149.401 192.708 150.624 193.1 152.158ZM206.853 147.364V150.432H196.127V147.364H206.853ZM199.004 142.659H202.826V161.234C202.826 161.976 202.937 162.534 203.158 162.909C203.38 163.276 203.665 163.527 204.015 163.663C204.373 163.791 204.761 163.855 205.178 163.855C205.485 163.855 205.754 163.834 205.984 163.791C206.214 163.749 206.393 163.714 206.521 163.689L207.211 166.847C206.989 166.932 206.674 167.017 206.265 167.102C205.856 167.196 205.344 167.247 204.731 167.256C203.725 167.273 202.788 167.094 201.918 166.719C201.049 166.344 200.346 165.764 199.809 164.98C199.272 164.196 199.004 163.212 199.004 162.027V142.659ZM219.142 167.396C217.301 167.396 215.694 166.974 214.322 166.131C212.95 165.287 211.885 164.107 211.126 162.589C210.368 161.072 209.988 159.3 209.988 157.271C209.988 155.234 210.368 153.453 211.126 151.928C211.885 150.402 212.95 149.217 214.322 148.374C215.694 147.53 217.301 147.108 219.142 147.108C220.983 147.108 222.589 147.53 223.961 148.374C225.333 149.217 226.399 150.402 227.157 151.928C227.916 153.453 228.295 155.234 228.295 157.271C228.295 159.3 227.916 161.072 227.157 162.589C226.399 164.107 225.333 165.287 223.961 166.131C222.589 166.974 220.983 167.396 219.142 167.396ZM219.154 164.188C220.348 164.188 221.336 163.872 222.12 163.241C222.904 162.611 223.484 161.771 223.859 160.723C224.243 159.675 224.434 158.52 224.434 157.259C224.434 156.006 224.243 154.855 223.859 153.807C223.484 152.75 222.904 151.902 222.12 151.263C221.336 150.624 220.348 150.304 219.154 150.304C217.953 150.304 216.956 150.624 216.163 151.263C215.379 151.902 214.795 152.75 214.412 153.807C214.037 154.855 213.849 156.006 213.849 157.259C213.849 158.52 214.037 159.675 214.412 160.723C214.795 161.771 215.379 162.611 216.163 163.241C216.956 163.872 217.953 164.188 219.154 164.188ZM232.562 167V147.364H236.231V150.56H236.474C236.883 149.477 237.552 148.634 238.481 148.028C239.41 147.415 240.522 147.108 241.817 147.108C243.13 147.108 244.229 147.415 245.116 148.028C246.011 148.642 246.671 149.486 247.097 150.56H247.302C247.771 149.511 248.516 148.676 249.539 148.054C250.562 147.423 251.781 147.108 253.195 147.108C254.977 147.108 256.43 147.666 257.555 148.783C258.688 149.899 259.255 151.582 259.255 153.832V167H255.433V154.19C255.433 152.861 255.07 151.898 254.346 151.301C253.621 150.705 252.756 150.406 251.751 150.406C250.506 150.406 249.539 150.79 248.849 151.557C248.158 152.315 247.813 153.291 247.813 154.484V167H244.004V153.947C244.004 152.882 243.671 152.026 243.006 151.378C242.342 150.73 241.477 150.406 240.411 150.406C239.687 150.406 239.018 150.598 238.404 150.982C237.799 151.357 237.309 151.881 236.934 152.554C236.567 153.227 236.384 154.007 236.384 154.893V167H232.562ZM272.841 167.396C270.907 167.396 269.24 166.983 267.843 166.156C266.453 165.321 265.38 164.149 264.621 162.641C263.871 161.124 263.496 159.347 263.496 157.31C263.496 155.298 263.871 153.526 264.621 151.991C265.38 150.457 266.436 149.26 267.792 148.399C269.155 147.538 270.749 147.108 272.573 147.108C273.681 147.108 274.755 147.291 275.794 147.658C276.834 148.024 277.767 148.599 278.594 149.384C279.421 150.168 280.073 151.186 280.55 152.439C281.027 153.683 281.266 155.196 281.266 156.977V158.332H265.657V155.469H277.52C277.52 154.463 277.316 153.572 276.907 152.797C276.498 152.013 275.922 151.395 275.181 150.943C274.448 150.491 273.587 150.266 272.598 150.266C271.525 150.266 270.587 150.53 269.786 151.058C268.993 151.578 268.38 152.26 267.945 153.104C267.519 153.939 267.306 154.847 267.306 155.827V158.064C267.306 159.376 267.536 160.493 267.996 161.413C268.465 162.334 269.117 163.037 269.952 163.523C270.787 164 271.763 164.239 272.88 164.239C273.604 164.239 274.265 164.136 274.861 163.932C275.458 163.719 275.973 163.403 276.408 162.986C276.843 162.568 277.175 162.053 277.405 161.439L281.023 162.091C280.733 163.156 280.213 164.089 279.463 164.891C278.722 165.683 277.789 166.301 276.664 166.744C275.547 167.179 274.273 167.396 272.841 167.396ZM285.507 167V147.364H289.202V150.483H289.406C289.764 149.426 290.395 148.595 291.298 147.99C292.21 147.376 293.241 147.07 294.392 147.07C294.631 147.07 294.912 147.078 295.236 147.095C295.568 147.112 295.828 147.134 296.016 147.159V150.815C295.862 150.773 295.589 150.726 295.197 150.675C294.805 150.615 294.413 150.585 294.021 150.585C293.118 150.585 292.313 150.777 291.605 151.161C290.906 151.536 290.352 152.06 289.943 152.733C289.534 153.398 289.33 154.156 289.33 155.009V167H285.507ZM17.2841 196.158L13.8196 196.771C13.6747 196.328 13.4446 195.906 13.1293 195.506C12.8224 195.105 12.4048 194.777 11.8764 194.521C11.348 194.266 10.6875 194.138 9.89489 194.138C8.8125 194.138 7.90909 194.381 7.18466 194.866C6.46023 195.344 6.09801 195.962 6.09801 196.72C6.09801 197.376 6.34091 197.905 6.8267 198.305C7.3125 198.706 8.09659 199.034 9.17898 199.29L12.2983 200.006C14.1051 200.423 15.4517 201.067 16.3381 201.936C17.2244 202.805 17.6676 203.935 17.6676 205.324C17.6676 206.5 17.3267 207.548 16.6449 208.469C15.9716 209.381 15.0298 210.097 13.8196 210.616C12.6179 211.136 11.2244 211.396 9.6392 211.396C7.44034 211.396 5.64631 210.928 4.2571 209.99C2.8679 209.044 2.01563 207.702 1.70028 205.963L5.39489 205.401C5.625 206.364 6.09801 207.092 6.81392 207.587C7.52983 208.072 8.46307 208.315 9.61364 208.315C10.8665 208.315 11.8679 208.055 12.6179 207.536C13.3679 207.007 13.7429 206.364 13.7429 205.605C13.7429 204.991 13.5128 204.476 13.0526 204.058C12.6009 203.641 11.9062 203.325 10.9688 203.112L7.64489 202.384C5.8125 201.966 4.45739 201.301 3.57955 200.389C2.71023 199.477 2.27557 198.322 2.27557 196.925C2.27557 195.766 2.59943 194.751 3.24716 193.882C3.89489 193.013 4.78977 192.335 5.93182 191.849C7.07386 191.355 8.3821 191.108 9.85653 191.108C11.9787 191.108 13.6491 191.568 14.8679 192.489C16.0866 193.401 16.892 194.624 17.2841 196.158ZM34.3093 202.857V191.364H38.1445V211H34.386V207.599H34.1815C33.7298 208.648 33.0053 209.521 32.0082 210.22C31.0195 210.911 29.788 211.256 28.3136 211.256C27.0522 211.256 25.9357 210.979 24.9641 210.425C24.0011 209.862 23.2425 209.031 22.6886 207.932C22.1431 206.832 21.8704 205.473 21.8704 203.854V191.364H25.6928V203.393C25.6928 204.732 26.0636 205.797 26.805 206.589C27.5465 207.382 28.5096 207.778 29.6942 207.778C30.4102 207.778 31.1218 207.599 31.8292 207.241C32.5451 206.884 33.1374 206.342 33.6062 205.618C34.0835 204.893 34.3178 203.973 34.3093 202.857ZM43.2805 218.364V191.364H47.0135V194.547H47.3331C47.5547 194.138 47.8743 193.665 48.2919 193.128C48.7095 192.591 49.2891 192.122 50.0305 191.722C50.772 191.312 51.7521 191.108 52.9709 191.108C54.5561 191.108 55.9709 191.509 57.2152 192.31C58.4595 193.111 59.4354 194.266 60.1428 195.774C60.8587 197.283 61.2166 199.098 61.2166 201.22C61.2166 203.342 60.8629 205.162 60.1555 206.679C59.4482 208.187 58.4766 209.351 57.2408 210.169C56.005 210.979 54.5945 211.384 53.0092 211.384C51.8161 211.384 50.8402 211.183 50.0817 210.783C49.3317 210.382 48.7436 209.913 48.3175 209.376C47.8913 208.839 47.5632 208.362 47.3331 207.945H47.103V218.364H43.2805ZM47.0263 201.182C47.0263 202.562 47.2266 203.773 47.6271 204.812C48.0277 205.852 48.6072 206.666 49.3658 207.254C50.1243 207.834 51.0533 208.124 52.1527 208.124C53.2947 208.124 54.2493 207.821 55.0163 207.216C55.7834 206.602 56.3629 205.771 56.755 204.723C57.1555 203.675 57.3558 202.494 57.3558 201.182C57.3558 199.886 57.1598 198.723 56.7678 197.692C56.3842 196.661 55.8047 195.847 55.0291 195.25C54.2621 194.653 53.3033 194.355 52.1527 194.355C51.0447 194.355 50.1072 194.641 49.3402 195.212C48.5817 195.783 48.0064 196.58 47.6143 197.602C47.2223 198.625 47.0263 199.818 47.0263 201.182ZM65.4993 218.364V191.364H69.2322V194.547H69.5518C69.7734 194.138 70.093 193.665 70.5107 193.128C70.9283 192.591 71.5078 192.122 72.2493 191.722C72.9908 191.312 73.9709 191.108 75.1896 191.108C76.7749 191.108 78.1896 191.509 79.4339 192.31C80.6783 193.111 81.6541 194.266 82.3615 195.774C83.0774 197.283 83.4354 199.098 83.4354 201.22C83.4354 203.342 83.0817 205.162 82.3743 206.679C81.6669 208.187 80.6953 209.351 79.4595 210.169C78.2237 210.979 76.8132 211.384 75.228 211.384C74.0348 211.384 73.0589 211.183 72.3004 210.783C71.5504 210.382 70.9624 209.913 70.5362 209.376C70.1101 208.839 69.782 208.362 69.5518 207.945H69.3217V218.364H65.4993ZM69.245 201.182C69.245 202.562 69.4453 203.773 69.8459 204.812C70.2464 205.852 70.826 206.666 71.5845 207.254C72.343 207.834 73.272 208.124 74.3714 208.124C75.5135 208.124 76.468 207.821 77.2351 207.216C78.0021 206.602 78.5817 205.771 78.9737 204.723C79.3743 203.675 79.5746 202.494 79.5746 201.182C79.5746 199.886 79.3786 198.723 78.9865 197.692C78.603 196.661 78.0234 195.847 77.2479 195.25C76.4808 194.653 75.522 194.355 74.3714 194.355C73.2635 194.355 72.326 194.641 71.5589 195.212C70.8004 195.783 70.2251 196.58 69.8331 197.602C69.4411 198.625 69.245 199.818 69.245 201.182ZM95.9893 211.396C94.1484 211.396 92.5419 210.974 91.1697 210.131C89.7976 209.287 88.7322 208.107 87.9737 206.589C87.2152 205.072 86.8359 203.3 86.8359 201.271C86.8359 199.234 87.2152 197.453 87.9737 195.928C88.7322 194.402 89.7976 193.217 91.1697 192.374C92.5419 191.53 94.1484 191.108 95.9893 191.108C97.8303 191.108 99.4368 191.53 100.809 192.374C102.181 193.217 103.246 194.402 104.005 195.928C104.763 197.453 105.143 199.234 105.143 201.271C105.143 203.3 104.763 205.072 104.005 206.589C103.246 208.107 102.181 209.287 100.809 210.131C99.4368 210.974 97.8303 211.396 95.9893 211.396ZM96.0021 208.188C97.1953 208.188 98.1839 207.872 98.968 207.241C99.7521 206.611 100.332 205.771 100.707 204.723C101.09 203.675 101.282 202.52 101.282 201.259C101.282 200.006 101.09 198.855 100.707 197.807C100.332 196.75 99.7521 195.902 98.968 195.263C98.1839 194.624 97.1953 194.304 96.0021 194.304C94.8004 194.304 93.8033 194.624 93.0107 195.263C92.2266 195.902 91.6428 196.75 91.2592 197.807C90.8842 198.855 90.6967 200.006 90.6967 201.259C90.6967 202.52 90.8842 203.675 91.2592 204.723C91.6428 205.771 92.2266 206.611 93.0107 207.241C93.8033 207.872 94.8004 208.188 96.0021 208.188ZM109.409 211V191.364H113.104V194.483H113.309C113.667 193.426 114.297 192.595 115.201 191.99C116.113 191.376 117.144 191.07 118.294 191.07C118.533 191.07 118.814 191.078 119.138 191.095C119.471 191.112 119.73 191.134 119.918 191.159V194.815C119.765 194.773 119.492 194.726 119.1 194.675C118.708 194.615 118.316 194.585 117.924 194.585C117.02 194.585 116.215 194.777 115.507 195.161C114.809 195.536 114.255 196.06 113.846 196.733C113.436 197.398 113.232 198.156 113.232 199.009V211H109.409ZM133.552 191.364V194.432H122.826V191.364H133.552ZM125.703 186.659H129.525V205.234C129.525 205.976 129.636 206.534 129.858 206.909C130.079 207.276 130.365 207.527 130.714 207.663C131.072 207.791 131.46 207.855 131.877 207.855C132.184 207.855 132.453 207.834 132.683 207.791C132.913 207.749 133.092 207.714 133.22 207.689L133.91 210.847C133.689 210.932 133.373 211.017 132.964 211.102C132.555 211.196 132.044 211.247 131.43 211.256C130.424 211.273 129.487 211.094 128.618 210.719C127.748 210.344 127.045 209.764 126.508 208.98C125.971 208.196 125.703 207.212 125.703 206.027V186.659ZM140.299 211.243C139.6 211.243 138.999 210.996 138.496 210.501C137.994 209.999 137.742 209.393 137.742 208.686C137.742 207.987 137.994 207.391 138.496 206.896C138.999 206.393 139.6 206.142 140.299 206.142C140.998 206.142 141.599 206.393 142.102 206.896C142.604 207.391 142.856 207.987 142.856 208.686C142.856 209.155 142.737 209.585 142.498 209.977C142.268 210.361 141.961 210.668 141.577 210.898C141.194 211.128 140.768 211.243 140.299 211.243ZM162.515 211L155.253 184.818H159.408L164.509 205.094H164.752L170.057 184.818H174.174L179.479 205.107H179.722L184.81 184.818H188.978L181.703 211H177.728L172.218 191.389H172.013L166.503 211H162.515ZM198.802 211.396C196.868 211.396 195.201 210.983 193.804 210.156C192.414 209.321 191.341 208.149 190.582 206.641C189.832 205.124 189.457 203.347 189.457 201.31C189.457 199.298 189.832 197.526 190.582 195.991C191.341 194.457 192.397 193.26 193.752 192.399C195.116 191.538 196.71 191.108 198.534 191.108C199.642 191.108 200.716 191.291 201.755 191.658C202.795 192.024 203.728 192.599 204.555 193.384C205.382 194.168 206.034 195.186 206.511 196.439C206.988 197.683 207.227 199.196 207.227 200.977V202.332H191.618V199.469H203.481C203.481 198.463 203.277 197.572 202.868 196.797C202.458 196.013 201.883 195.395 201.142 194.943C200.409 194.491 199.548 194.266 198.559 194.266C197.485 194.266 196.548 194.53 195.747 195.058C194.954 195.578 194.341 196.26 193.906 197.104C193.48 197.939 193.267 198.847 193.267 199.827V202.064C193.267 203.376 193.497 204.493 193.957 205.413C194.426 206.334 195.078 207.037 195.913 207.523C196.748 208 197.724 208.239 198.841 208.239C199.565 208.239 200.225 208.136 200.822 207.932C201.419 207.719 201.934 207.403 202.369 206.986C202.804 206.568 203.136 206.053 203.366 205.439L206.984 206.091C206.694 207.156 206.174 208.089 205.424 208.891C204.683 209.683 203.75 210.301 202.625 210.744C201.508 211.179 200.234 211.396 198.802 211.396ZM229.267 211.396C227.366 211.396 225.73 210.966 224.358 210.105C222.994 209.236 221.946 208.038 221.213 206.513C220.48 204.987 220.113 203.24 220.113 201.271C220.113 199.277 220.488 197.517 221.238 195.991C221.988 194.457 223.045 193.26 224.409 192.399C225.772 191.538 227.379 191.108 229.228 191.108C230.72 191.108 232.049 191.385 233.217 191.939C234.385 192.484 235.326 193.251 236.042 194.24C236.767 195.229 237.197 196.384 237.333 197.705H233.613C233.409 196.784 232.94 195.991 232.207 195.327C231.483 194.662 230.511 194.33 229.292 194.33C228.227 194.33 227.294 194.611 226.493 195.173C225.7 195.727 225.082 196.52 224.639 197.551C224.196 198.574 223.974 199.784 223.974 201.182C223.974 202.614 224.191 203.849 224.626 204.889C225.061 205.929 225.674 206.734 226.467 207.305C227.268 207.876 228.21 208.162 229.292 208.162C230.017 208.162 230.673 208.03 231.261 207.766C231.858 207.493 232.356 207.105 232.757 206.602C233.166 206.099 233.451 205.494 233.613 204.787H237.333C237.197 206.057 236.784 207.19 236.093 208.188C235.403 209.185 234.478 209.969 233.319 210.54C232.169 211.111 230.818 211.396 229.267 211.396ZM247.136 211.435C245.891 211.435 244.766 211.205 243.761 210.744C242.755 210.276 241.958 209.598 241.37 208.712C240.79 207.825 240.501 206.739 240.501 205.452C240.501 204.344 240.714 203.432 241.14 202.716C241.566 202 242.141 201.433 242.866 201.016C243.59 200.598 244.4 200.283 245.295 200.07C246.19 199.857 247.102 199.695 248.031 199.584C249.207 199.447 250.161 199.337 250.894 199.251C251.627 199.158 252.16 199.009 252.492 198.804C252.825 198.599 252.991 198.267 252.991 197.807V197.717C252.991 196.601 252.675 195.736 252.045 195.122C251.423 194.509 250.494 194.202 249.258 194.202C247.971 194.202 246.957 194.487 246.215 195.058C245.482 195.621 244.975 196.247 244.694 196.938L241.102 196.119C241.528 194.926 242.15 193.963 242.968 193.23C243.795 192.489 244.745 191.952 245.819 191.619C246.893 191.278 248.022 191.108 249.207 191.108C249.991 191.108 250.822 191.202 251.7 191.389C252.586 191.568 253.413 191.901 254.18 192.386C254.955 192.872 255.59 193.567 256.085 194.47C256.579 195.365 256.826 196.528 256.826 197.96V211H253.093V208.315H252.94C252.692 208.81 252.322 209.295 251.827 209.773C251.333 210.25 250.698 210.646 249.923 210.962C249.147 211.277 248.218 211.435 247.136 211.435ZM247.967 208.366C249.023 208.366 249.927 208.158 250.677 207.74C251.435 207.322 252.011 206.777 252.403 206.104C252.803 205.422 253.004 204.693 253.004 203.918V201.386C252.867 201.523 252.603 201.651 252.211 201.77C251.827 201.881 251.388 201.979 250.894 202.064C250.4 202.141 249.918 202.213 249.45 202.281C248.981 202.341 248.589 202.392 248.273 202.435C247.532 202.528 246.854 202.686 246.241 202.908C245.636 203.129 245.15 203.449 244.783 203.866C244.425 204.276 244.246 204.821 244.246 205.503C244.246 206.449 244.596 207.165 245.295 207.651C245.994 208.128 246.884 208.366 247.967 208.366ZM265.74 199.341V211H261.917V191.364H265.586V194.56H265.829C266.281 193.52 266.988 192.685 267.951 192.054C268.923 191.423 270.146 191.108 271.62 191.108C272.958 191.108 274.13 191.389 275.136 191.952C276.142 192.506 276.922 193.332 277.475 194.432C278.029 195.531 278.306 196.891 278.306 198.51V211H274.484V198.97C274.484 197.547 274.113 196.435 273.372 195.634C272.63 194.824 271.612 194.419 270.316 194.419C269.43 194.419 268.642 194.611 267.951 194.994C267.27 195.378 266.728 195.94 266.328 196.682C265.936 197.415 265.74 198.301 265.74 199.341ZM286.718 184.818V187.273C286.718 187.997 286.582 188.76 286.309 189.561C286.045 190.354 285.67 191.116 285.184 191.849C284.699 192.582 284.127 193.213 283.471 193.741L281.579 192.386C282.082 191.653 282.517 190.874 282.883 190.047C283.258 189.22 283.446 188.308 283.446 187.311V184.818H286.718ZM300.333 191.364V194.432H289.608V191.364H300.333ZM292.484 186.659H296.306V205.234C296.306 205.976 296.417 206.534 296.639 206.909C296.86 207.276 297.146 207.527 297.495 207.663C297.853 207.791 298.241 207.855 298.659 207.855C298.966 207.855 299.234 207.834 299.464 207.791C299.694 207.749 299.873 207.714 300.001 207.689L300.691 210.847C300.47 210.932 300.154 211.017 299.745 211.102C299.336 211.196 298.825 211.247 298.211 211.256C297.206 211.273 296.268 211.094 295.399 210.719C294.529 210.344 293.826 209.764 293.289 208.98C292.752 208.196 292.484 207.212 292.484 206.027V186.659ZM2.5696 255V235.364H6.39205V255H2.5696ZM4.5 232.334C3.83523 232.334 3.2642 232.112 2.78693 231.669C2.31818 231.217 2.08381 230.68 2.08381 230.058C2.08381 229.428 2.31818 228.891 2.78693 228.447C3.2642 227.996 3.83523 227.77 4.5 227.77C5.16477 227.77 5.73153 227.996 6.20028 228.447C6.67756 228.891 6.91619 229.428 6.91619 230.058C6.91619 230.68 6.67756 231.217 6.20028 231.669C5.73153 232.112 5.16477 232.334 4.5 232.334ZM11.5344 255V235.364H15.2035V238.56H15.4464C15.8555 237.477 16.5245 236.634 17.4535 236.028C18.3825 235.415 19.4947 235.108 20.7901 235.108C22.1026 235.108 23.2021 235.415 24.0884 236.028C24.9833 236.642 25.6438 237.486 26.07 238.56H26.2745C26.7433 237.511 27.489 236.676 28.5117 236.054C29.5344 235.423 30.7532 235.108 32.168 235.108C33.9492 235.108 35.4023 235.666 36.5273 236.783C37.6609 237.899 38.2276 239.582 38.2276 241.832V255H34.4052V242.19C34.4052 240.861 34.043 239.898 33.3185 239.301C32.5941 238.705 31.729 238.406 30.7234 238.406C29.479 238.406 28.5117 238.79 27.8214 239.557C27.131 240.315 26.7859 241.291 26.7859 242.484V255H22.9762V241.947C22.9762 240.882 22.6438 240.026 21.979 239.378C21.3143 238.73 20.4492 238.406 19.3839 238.406C18.6594 238.406 17.9904 238.598 17.3768 238.982C16.7717 239.357 16.2816 239.881 15.9066 240.554C15.5401 241.227 15.3569 242.007 15.3569 242.893V255H11.5344ZM49.0653 255.435C47.821 255.435 46.696 255.205 45.6903 254.744C44.6847 254.276 43.8878 253.598 43.2997 252.712C42.7202 251.825 42.4304 250.739 42.4304 249.452C42.4304 248.344 42.6435 247.432 43.0696 246.716C43.4957 246 44.071 245.433 44.7955 245.016C45.5199 244.598 46.3295 244.283 47.2244 244.07C48.1193 243.857 49.0313 243.695 49.9602 243.584C51.1364 243.447 52.0909 243.337 52.8239 243.251C53.5568 243.158 54.0895 243.009 54.4219 242.804C54.7543 242.599 54.9205 242.267 54.9205 241.807V241.717C54.9205 240.601 54.6051 239.736 53.9744 239.122C53.3523 238.509 52.4233 238.202 51.1875 238.202C49.9006 238.202 48.8864 238.487 48.1449 239.058C47.4119 239.621 46.9048 240.247 46.6236 240.938L43.0312 240.119C43.4574 238.926 44.0795 237.963 44.8977 237.23C45.7244 236.489 46.6747 235.952 47.7486 235.619C48.8224 235.278 49.9517 235.108 51.1364 235.108C51.9205 235.108 52.7514 235.202 53.6293 235.389C54.5156 235.568 55.3423 235.901 56.1094 236.386C56.8849 236.872 57.5199 237.567 58.0142 238.47C58.5085 239.365 58.7557 240.528 58.7557 241.96V255H55.0227V252.315H54.8693C54.6222 252.81 54.2514 253.295 53.7571 253.773C53.2628 254.25 52.6278 254.646 51.8523 254.962C51.0767 255.277 50.1477 255.435 49.0653 255.435ZM49.8963 252.366C50.9531 252.366 51.8565 252.158 52.6065 251.74C53.3651 251.322 53.9403 250.777 54.3324 250.104C54.733 249.422 54.9332 248.693 54.9332 247.918V245.386C54.7969 245.523 54.5327 245.651 54.1406 245.77C53.7571 245.881 53.3182 245.979 52.8239 246.064C52.3295 246.141 51.848 246.213 51.3793 246.281C50.9105 246.341 50.5185 246.392 50.2031 246.435C49.4616 246.528 48.7841 246.686 48.1705 246.908C47.5653 247.129 47.0795 247.449 46.7131 247.866C46.3551 248.276 46.1761 248.821 46.1761 249.503C46.1761 250.449 46.5256 251.165 47.2244 251.651C47.9233 252.128 48.8139 252.366 49.8963 252.366ZM72.0799 262.773C70.5202 262.773 69.1779 262.568 68.0529 262.159C66.9364 261.75 66.0245 261.209 65.3171 260.536C64.6097 259.862 64.0813 259.125 63.7319 258.324L67.0174 256.969C67.2475 257.344 67.5543 257.74 67.9379 258.158C68.3299 258.584 68.8583 258.946 69.5231 259.244C70.1964 259.543 71.0614 259.692 72.1183 259.692C73.5671 259.692 74.7646 259.338 75.7106 258.631C76.6566 257.932 77.1296 256.815 77.1296 255.281V251.42H76.8867C76.6566 251.838 76.3242 252.303 75.8896 252.814C75.4634 253.325 74.8754 253.768 74.1254 254.143C73.3754 254.518 72.3995 254.706 71.1978 254.706C69.6467 254.706 68.2489 254.344 67.0046 253.619C65.7688 252.886 64.7887 251.808 64.0643 250.385C63.3484 248.953 62.9904 247.193 62.9904 245.105C62.9904 243.017 63.3441 241.227 64.0515 239.736C64.7674 238.244 65.7475 237.102 66.9918 236.31C68.2362 235.509 69.6467 235.108 71.2234 235.108C72.4421 235.108 73.4265 235.312 74.1765 235.722C74.9265 236.122 75.5103 236.591 75.9279 237.128C76.354 237.665 76.6822 238.138 76.9123 238.547H77.1935V235.364H80.9393V255.435C80.9393 257.122 80.5472 258.507 79.7631 259.589C78.979 260.672 77.918 261.473 76.5799 261.993C75.2504 262.513 73.7504 262.773 72.0799 262.773ZM72.0415 251.536C73.141 251.536 74.07 251.28 74.8285 250.768C75.5955 250.249 76.1751 249.507 76.5671 248.544C76.9677 247.572 77.168 246.409 77.168 245.054C77.168 243.733 76.9719 242.57 76.5799 241.564C76.1879 240.558 75.6126 239.774 74.854 239.212C74.0955 238.641 73.158 238.355 72.0415 238.355C70.891 238.355 69.9322 238.653 69.1651 239.25C68.3981 239.838 67.8185 240.639 67.4265 241.653C67.043 242.668 66.8512 243.801 66.8512 245.054C66.8512 246.341 67.0472 247.47 67.4393 248.442C67.8313 249.413 68.4109 250.172 69.1779 250.717C69.9535 251.263 70.908 251.536 72.0415 251.536ZM86.0657 255V235.364H89.8881V255H86.0657ZM87.9961 232.334C87.3313 232.334 86.7603 232.112 86.283 231.669C85.8143 231.217 85.5799 230.68 85.5799 230.058C85.5799 229.428 85.8143 228.891 86.283 228.447C86.7603 227.996 87.3313 227.77 87.9961 227.77C88.6609 227.77 89.2276 227.996 89.6964 228.447C90.1737 228.891 90.4123 229.428 90.4123 230.058C90.4123 230.68 90.1737 231.217 89.6964 231.669C89.2276 232.112 88.6609 232.334 87.9961 232.334ZM98.853 243.341V255H95.0305V235.364H98.6996V238.56H98.9425C99.3942 237.52 100.102 236.685 101.065 236.054C102.036 235.423 103.259 235.108 104.734 235.108C106.072 235.108 107.244 235.389 108.249 235.952C109.255 236.506 110.035 237.332 110.589 238.432C111.143 239.531 111.42 240.891 111.42 242.51V255H107.597V242.97C107.597 241.547 107.227 240.435 106.485 239.634C105.744 238.824 104.725 238.419 103.43 238.419C102.543 238.419 101.755 238.611 101.065 238.994C100.383 239.378 99.8416 239.94 99.4411 240.682C99.049 241.415 98.853 242.301 98.853 243.341ZM125.009 255.396C123.075 255.396 121.408 254.983 120.011 254.156C118.621 253.321 117.548 252.149 116.789 250.641C116.039 249.124 115.664 247.347 115.664 245.31C115.664 243.298 116.039 241.526 116.789 239.991C117.548 238.457 118.604 237.26 119.96 236.399C121.323 235.538 122.917 235.108 124.741 235.108C125.849 235.108 126.923 235.291 127.962 235.658C129.002 236.024 129.935 236.599 130.762 237.384C131.589 238.168 132.241 239.186 132.718 240.439C133.195 241.683 133.434 243.196 133.434 244.977V246.332H117.825V243.469H129.688C129.688 242.463 129.484 241.572 129.075 240.797C128.665 240.013 128.09 239.395 127.349 238.943C126.616 238.491 125.755 238.266 124.766 238.266C123.692 238.266 122.755 238.53 121.954 239.058C121.161 239.578 120.548 240.26 120.113 241.104C119.687 241.939 119.474 242.847 119.474 243.827V246.064C119.474 247.376 119.704 248.493 120.164 249.413C120.633 250.334 121.285 251.037 122.12 251.523C122.955 252 123.931 252.239 125.048 252.239C125.772 252.239 126.433 252.136 127.029 251.932C127.626 251.719 128.141 251.403 128.576 250.986C129.011 250.568 129.343 250.053 129.573 249.439L133.191 250.091C132.901 251.156 132.381 252.089 131.631 252.891C130.89 253.683 129.957 254.301 128.832 254.744C127.715 255.179 126.441 255.396 125.009 255.396ZM151.46 255L145.681 235.364H149.631L153.479 249.784H153.671L157.532 235.364H161.482L165.317 249.72H165.509L169.332 235.364H173.282L167.516 255H163.617L159.629 240.822H159.335L155.346 255H151.46ZM184.583 255.396C182.742 255.396 181.136 254.974 179.763 254.131C178.391 253.287 177.326 252.107 176.567 250.589C175.809 249.072 175.43 247.3 175.43 245.271C175.43 243.234 175.809 241.453 176.567 239.928C177.326 238.402 178.391 237.217 179.763 236.374C181.136 235.53 182.742 235.108 184.583 235.108C186.424 235.108 188.031 235.53 189.403 236.374C190.775 237.217 191.84 238.402 192.599 239.928C193.357 241.453 193.737 243.234 193.737 245.271C193.737 247.3 193.357 249.072 192.599 250.589C191.84 252.107 190.775 253.287 189.403 254.131C188.031 254.974 186.424 255.396 184.583 255.396ZM184.596 252.188C185.789 252.188 186.778 251.872 187.562 251.241C188.346 250.611 188.925 249.771 189.3 248.723C189.684 247.675 189.876 246.52 189.876 245.259C189.876 244.006 189.684 242.855 189.3 241.807C188.925 240.75 188.346 239.902 187.562 239.263C186.778 238.624 185.789 238.304 184.596 238.304C183.394 238.304 182.397 238.624 181.604 239.263C180.82 239.902 180.237 240.75 179.853 241.807C179.478 242.855 179.29 244.006 179.29 245.259C179.29 246.52 179.478 247.675 179.853 248.723C180.237 249.771 180.82 250.611 181.604 251.241C182.397 251.872 183.394 252.188 184.596 252.188ZM198.003 255V235.364H201.698V238.483H201.902C202.26 237.426 202.891 236.595 203.794 235.99C204.706 235.376 205.738 235.07 206.888 235.07C207.127 235.07 207.408 235.078 207.732 235.095C208.064 235.112 208.324 235.134 208.512 235.159V238.815C208.358 238.773 208.086 238.726 207.694 238.675C207.301 238.615 206.909 238.585 206.517 238.585C205.614 238.585 204.809 238.777 204.101 239.161C203.402 239.536 202.848 240.06 202.439 240.733C202.03 241.398 201.826 242.156 201.826 243.009V255H198.003ZM215.335 248.339L215.31 243.673H215.974L223.798 235.364H228.375L219.452 244.824H218.851L215.335 248.339ZM211.82 255V228.818H215.642V255H211.82ZM224.22 255L217.189 245.668L219.822 242.996L228.912 255H224.22ZM231.859 255V235.364H235.681V255H231.859ZM233.789 232.334C233.124 232.334 232.553 232.112 232.076 231.669C231.607 231.217 231.373 230.68 231.373 230.058C231.373 229.428 231.607 228.891 232.076 228.447C232.553 227.996 233.124 227.77 233.789 227.77C234.454 227.77 235.021 227.996 235.489 228.447C235.967 228.891 236.205 229.428 236.205 230.058C236.205 230.68 235.967 231.217 235.489 231.669C235.021 232.112 234.454 232.334 233.789 232.334ZM244.646 243.341V255H240.824V235.364H244.493V238.56H244.735C245.187 237.52 245.895 236.685 246.858 236.054C247.829 235.423 249.052 235.108 250.527 235.108C251.865 235.108 253.037 235.389 254.042 235.952C255.048 236.506 255.828 237.332 256.382 238.432C256.936 239.531 257.213 240.891 257.213 242.51V255H253.39V242.97C253.39 241.547 253.02 240.435 252.278 239.634C251.537 238.824 250.518 238.419 249.223 238.419C248.336 238.419 247.548 238.611 246.858 238.994C246.176 239.378 245.635 239.94 245.234 240.682C244.842 241.415 244.646 242.301 244.646 243.341ZM270.572 262.773C269.012 262.773 267.67 262.568 266.545 262.159C265.429 261.75 264.517 261.209 263.809 260.536C263.102 259.862 262.574 259.125 262.224 258.324L265.51 256.969C265.74 257.344 266.047 257.74 266.43 258.158C266.822 258.584 267.35 258.946 268.015 259.244C268.689 259.543 269.554 259.692 270.61 259.692C272.059 259.692 273.257 259.338 274.203 258.631C275.149 257.932 275.622 256.815 275.622 255.281V251.42H275.379C275.149 251.838 274.816 252.303 274.382 252.814C273.956 253.325 273.368 253.768 272.618 254.143C271.868 254.518 270.892 254.706 269.69 254.706C268.139 254.706 266.741 254.344 265.497 253.619C264.261 252.886 263.281 251.808 262.556 250.385C261.841 248.953 261.483 247.193 261.483 245.105C261.483 243.017 261.836 241.227 262.544 239.736C263.26 238.244 264.24 237.102 265.484 236.31C266.728 235.509 268.139 235.108 269.716 235.108C270.934 235.108 271.919 235.312 272.669 235.722C273.419 236.122 274.002 236.591 274.42 237.128C274.846 237.665 275.174 238.138 275.404 238.547H275.686V235.364H279.431V255.435C279.431 257.122 279.039 258.507 278.255 259.589C277.471 260.672 276.41 261.473 275.072 261.993C273.743 262.513 272.243 262.773 270.572 262.773ZM270.534 251.536C271.633 251.536 272.562 251.28 273.321 250.768C274.088 250.249 274.667 249.507 275.059 248.544C275.46 247.572 275.66 246.409 275.66 245.054C275.66 243.733 275.464 242.57 275.072 241.564C274.68 240.558 274.105 239.774 273.346 239.212C272.588 238.641 271.65 238.355 270.534 238.355C269.383 238.355 268.424 238.653 267.657 239.25C266.89 239.838 266.311 240.639 265.919 241.653C265.535 242.668 265.343 243.801 265.343 245.054C265.343 246.341 265.539 247.47 265.931 248.442C266.324 249.413 266.903 250.172 267.67 250.717C268.446 251.263 269.4 251.536 270.534 251.536ZM6.8267 299L1.0483 279.364H4.99858L8.84659 293.784H9.03835L12.8991 279.364H16.8494L20.6847 293.72H20.8764L24.6989 279.364H28.6491L22.8835 299H18.9844L14.9957 284.822H14.7017L10.7131 299H6.8267ZM32.2766 299V279.364H36.0991V299H32.2766ZM34.207 276.334C33.5423 276.334 32.9712 276.112 32.494 275.669C32.0252 275.217 31.7908 274.68 31.7908 274.058C31.7908 273.428 32.0252 272.891 32.494 272.447C32.9712 271.996 33.5423 271.77 34.207 271.77C34.8718 271.77 35.4386 271.996 35.9073 272.447C36.3846 272.891 36.6232 273.428 36.6232 274.058C36.6232 274.68 36.3846 275.217 35.9073 275.669C35.4386 276.112 34.8718 276.334 34.207 276.334ZM50.4077 279.364V282.432H39.6818V279.364H50.4077ZM42.5582 274.659H46.3807V293.234C46.3807 293.976 46.4915 294.534 46.7131 294.909C46.9347 295.276 47.2202 295.527 47.5696 295.663C47.9276 295.791 48.3153 295.855 48.733 295.855C49.0398 295.855 49.3082 295.834 49.5384 295.791C49.7685 295.749 49.9474 295.714 50.0753 295.689L50.7656 298.847C50.544 298.932 50.2287 299.017 49.8196 299.102C49.4105 299.196 48.8991 299.247 48.2855 299.256C47.2798 299.273 46.3423 299.094 45.473 298.719C44.6037 298.344 43.9006 297.764 43.3636 296.98C42.8267 296.196 42.5582 295.212 42.5582 294.027V274.659ZM58.8803 287.341V299H55.0579V272.818H58.8292V282.56H59.0721C59.5323 281.503 60.2354 280.663 61.1815 280.041C62.1275 279.419 63.3633 279.108 64.8889 279.108C66.2354 279.108 67.4116 279.385 68.4173 279.939C69.4315 280.493 70.2156 281.32 70.7695 282.419C71.332 283.51 71.6133 284.874 71.6133 286.51V299H67.7908V286.97C67.7908 285.53 67.4201 284.413 66.6786 283.621C65.9371 282.82 64.9059 282.419 63.5849 282.419C62.6815 282.419 61.8718 282.611 61.1559 282.994C60.4485 283.378 59.8903 283.94 59.4812 284.682C59.0806 285.415 58.8803 286.301 58.8803 287.341ZM84.9854 299.396C83.1445 299.396 81.538 298.974 80.1658 298.131C78.7937 297.287 77.7283 296.107 76.9698 294.589C76.2113 293.072 75.832 291.3 75.832 289.271C75.832 287.234 76.2113 285.453 76.9698 283.928C77.7283 282.402 78.7937 281.217 80.1658 280.374C81.538 279.53 83.1445 279.108 84.9854 279.108C86.8263 279.108 88.4329 279.53 89.805 280.374C91.1772 281.217 92.2425 282.402 93.0011 283.928C93.7596 285.453 94.1389 287.234 94.1389 289.271C94.1389 291.3 93.7596 293.072 93.0011 294.589C92.2425 296.107 91.1772 297.287 89.805 298.131C88.4329 298.974 86.8263 299.396 84.9854 299.396ZM84.9982 296.188C86.1914 296.188 87.18 295.872 87.9641 295.241C88.7482 294.611 89.3278 293.771 89.7028 292.723C90.0863 291.675 90.2781 290.52 90.2781 289.259C90.2781 288.006 90.0863 286.855 89.7028 285.807C89.3278 284.75 88.7482 283.902 87.9641 283.263C87.18 282.624 86.1914 282.304 84.9982 282.304C83.7965 282.304 82.7994 282.624 82.0067 283.263C81.2227 283.902 80.6388 284.75 80.2553 285.807C79.8803 286.855 79.6928 288.006 79.6928 289.259C79.6928 290.52 79.8803 291.675 80.2553 292.723C80.6388 293.771 81.2227 294.611 82.0067 295.241C82.7994 295.872 83.7965 296.188 84.9982 296.188ZM110.844 290.857V279.364H114.68V299H110.921V295.599H110.717C110.265 296.648 109.54 297.521 108.543 298.22C107.555 298.911 106.323 299.256 104.849 299.256C103.587 299.256 102.471 298.979 101.499 298.425C100.536 297.862 99.7777 297.031 99.2237 295.932C98.6783 294.832 98.4055 293.473 98.4055 291.854V279.364H102.228V291.393C102.228 292.732 102.599 293.797 103.34 294.589C104.082 295.382 105.045 295.778 106.229 295.778C106.945 295.778 107.657 295.599 108.364 295.241C109.08 294.884 109.673 294.342 110.141 293.618C110.619 292.893 110.853 291.973 110.844 290.857ZM128.982 279.364V282.432H118.256V279.364H128.982ZM121.132 274.659H124.955V293.234C124.955 293.976 125.066 294.534 125.287 294.909C125.509 295.276 125.794 295.527 126.144 295.663C126.502 295.791 126.89 295.855 127.307 295.855C127.614 295.855 127.882 295.834 128.113 295.791C128.343 295.749 128.522 295.714 128.65 295.689L129.34 298.847C129.118 298.932 128.803 299.017 128.394 299.102C127.985 299.196 127.473 299.247 126.86 299.256C125.854 299.273 124.917 299.094 124.047 298.719C123.178 298.344 122.475 297.764 121.938 296.98C121.401 296.196 121.132 295.212 121.132 294.027V274.659ZM142.738 299V279.364H146.56V299H142.738ZM144.668 276.334C144.003 276.334 143.432 276.112 142.955 275.669C142.486 275.217 142.252 274.68 142.252 274.058C142.252 273.428 142.486 272.891 142.955 272.447C143.432 271.996 144.003 271.77 144.668 271.77C145.333 271.77 145.9 271.996 146.368 272.447C146.846 272.891 147.084 273.428 147.084 274.058C147.084 274.68 146.846 275.217 146.368 275.669C145.9 276.112 145.333 276.334 144.668 276.334ZM160.869 279.364V282.432H150.143V279.364H160.869ZM153.019 274.659H156.842V293.234C156.842 293.976 156.952 294.534 157.174 294.909C157.396 295.276 157.681 295.527 158.031 295.663C158.388 295.791 158.776 295.855 159.194 295.855C159.501 295.855 159.769 295.834 159.999 295.791C160.229 295.749 160.408 295.714 160.536 295.689L161.227 298.847C161.005 298.932 160.69 299.017 160.281 299.102C159.871 299.196 159.36 299.247 158.746 299.256C157.741 299.273 156.803 299.094 155.934 298.719C155.065 298.344 154.362 297.764 153.825 296.98C153.288 296.196 153.019 295.212 153.019 294.027V274.659ZM167.615 299.243C166.917 299.243 166.316 298.996 165.813 298.501C165.31 297.999 165.059 297.393 165.059 296.686C165.059 295.987 165.31 295.391 165.813 294.896C166.316 294.393 166.917 294.142 167.615 294.142C168.314 294.142 168.915 294.393 169.418 294.896C169.921 295.391 170.172 295.987 170.172 296.686C170.172 297.155 170.053 297.585 169.814 297.977C169.584 298.361 169.277 298.668 168.894 298.898C168.51 299.128 168.084 299.243 167.615 299.243Z" fill="white"/>
<defs>
<clipPath id="clip0_0_2197">
<rect width="20" height="20" fill="white"/>
</clipPath>
<clipPath id="clip1_0_2197">
<rect width="20" height="20" fill="white"/>
</clipPath>
<clipPath id="clip2_0_2197">
<rect width="20" height="20" fill="white" transform="translate(24)"/>
</clipPath>
<clipPath id="clip3_0_2197">
<rect width="20" height="20" fill="white" transform="translate(24)"/>
</clipPath>
<clipPath id="clip4_0_2197">
<rect width="20" height="20" fill="white" transform="translate(48)"/>
</clipPath>
<clipPath id="clip5_0_2197">
<rect width="20" height="20" fill="white" transform="translate(48)"/>
</clipPath>
<clipPath id="clip6_0_2197">
<rect width="20" height="20" fill="white" transform="translate(72)"/>
</clipPath>
<clipPath id="clip7_0_2197">
<rect width="20" height="20" fill="white" transform="translate(72)"/>
</clipPath>
<clipPath id="clip8_0_2197">
<rect width="20" height="20" fill="white" transform="translate(96)"/>
</clipPath>
<clipPath id="clip9_0_2197">
<rect width="20" height="20" fill="white" transform="translate(96)"/>
</clipPath>
</defs>
</svg>
